<?xml version="1.0" standalone="no"?>
<!DOCTYPE svg PUBLIC "-//W3C//DTD SVG 20010904//EN"
 "http://www.w3.org/TR/2001/REC-SVG-20010904/DTD/svg10.dtd">
<svg version="1.0" xmlns="http://www.w3.org/2000/svg"
 width="419.000000pt" height="596.000000pt" viewBox="0 0 419.000000 596.000000"
 preserveAspectRatio="xMidYMid meet">
<metadata>
Created by potrace 1.16, written by Peter Selinger 2001-2019
</metadata>
<g transform="translate(0.000000,596.000000) scale(0.100000,-0.100000)"
fill="#000000" stroke="none">
<path d="M0 2980 l0 -2980 344 0 c304 0 345 2 350 16 10 25 7 142 -5 208 -8
43 -9 99 -2 188 8 113 12 131 33 153 20 21 22 28 11 47 -25 47 -38 68 -55 87
-40 44 -61 218 -42 356 4 33 8 65 8 70 0 6 -30 55 -66 109 -36 55 -66 104 -66
109 0 6 -14 40 -31 76 -59 126 -82 187 -119 321 -10 36 -30 99 -43 141 -25 78
-35 157 -42 335 -2 56 -11 132 -19 170 -8 38 -19 94 -26 125 -11 58 -16 376
-7 437 10 60 19 97 27 107 5 6 13 36 19 68 13 74 41 135 76 169 15 15 71 51
124 79 53 29 98 55 101 59 3 4 16 11 30 15 14 4 32 13 40 19 24 19 97 56 109
56 7 0 54 25 105 55 51 30 105 59 120 64 14 6 39 19 54 29 15 11 53 36 84 56
31 20 61 42 65 49 4 6 8 47 8 89 0 92 9 103 97 111 35 3 68 13 87 26 28 20 29
25 25 74 -3 28 -11 65 -19 81 -8 16 -15 39 -15 51 0 11 -4 25 -9 31 -4 5 -14
32 -21 59 -7 28 -16 55 -20 60 -4 6 -11 25 -15 42 -7 37 -20 49 -38 35 -13 -9
-41 -4 -68 13 -17 10 -69 112 -69 134 0 7 -9 30 -20 51 -11 22 -29 58 -40 80
-22 43 -27 119 -8 138 15 15 65 16 74 1 5 -8 10 -6 16 5 7 12 5 28 -7 52 -23
50 -60 341 -46 370 6 13 13 47 17 76 4 28 24 86 46 129 21 42 38 84 38 92 0
23 91 112 188 185 109 82 104 79 231 101 109 19 173 16 226 -8 11 -5 32 -12
46 -15 14 -3 42 -17 63 -31 20 -14 45 -25 55 -25 10 0 30 -9 44 -20 14 -11 29
-20 35 -20 5 0 31 -24 59 -52 34 -37 53 -67 61 -99 7 -26 26 -62 45 -83 31
-33 34 -43 36 -103 1 -37 6 -87 12 -112 6 -25 9 -87 8 -138 -3 -98 5 -119 44
-125 19 -3 23 -11 28 -63 3 -33 12 -86 20 -117 11 -47 11 -72 1 -135 -17 -104
-28 -129 -68 -152 -29 -18 -34 -26 -34 -59 0 -60 -26 -145 -74 -240 -31 -61
-46 -104 -49 -142 l-5 -55 53 -51 c42 -40 57 -64 70 -107 25 -87 67 -116 307
-217 53 -22 109 -40 123 -40 15 0 36 -5 48 -12 12 -7 49 -15 82 -19 180 -21
282 -78 355 -199 19 -32 55 -91 79 -131 24 -41 59 -96 76 -124 54 -85 123
-247 130 -305 4 -30 12 -66 16 -79 8 -19 6 -22 -6 -17 -8 3 -15 1 -15 -4 0 -5
-7 -7 -15 -4 -11 5 -15 -1 -15 -19 0 -14 -5 -29 -10 -32 -6 -4 -8 -11 -5 -16
4 -5 2 -9 -4 -9 -14 0 -34 -77 -29 -116 2 -18 1 -31 -3 -28 -4 2 -10 0 -14 -6
-3 -5 -1 -10 4 -10 6 0 10 -6 8 -12 -1 -7 4 -12 11 -11 20 5 14 -12 -13 -35
-14 -12 -25 -28 -25 -34 0 -9 3 -8 10 2 7 12 11 10 18 -10 11 -29 5 -34 -52
-45 -49 -8 -165 -53 -187 -72 -8 -7 -19 -13 -23 -13 -11 0 -69 -49 -80 -68 -7
-12 -5 -12 15 1 29 21 39 21 39 2 0 -13 3 -13 20 -3 15 10 22 10 31 1 9 -9 16
-7 30 10 16 19 20 20 30 7 8 -11 12 -12 16 -2 2 6 15 12 28 12 13 0 27 5 30
10 3 6 23 10 43 9 l37 0 -50 -18 c-27 -10 -70 -27 -95 -38 -25 -12 -51 -23
-59 -25 -22 -5 -92 -79 -107 -113 -13 -30 -13 -30 -15 25 -3 74 -5 92 -12 110
-14 38 -16 102 -6 190 13 116 38 220 53 220 6 0 5 4 -3 9 -12 8 -12 14 -1 43
8 18 19 36 24 40 7 5 5 8 -5 8 -15 0 -15 5 -7 38 5 20 16 64 23 97 26 109 27
115 34 115 4 0 14 -15 23 -32 l15 -33 7 31 c4 18 20 42 36 54 18 14 26 28 23
38 -5 11 -3 13 6 7 10 -6 11 -3 3 12 -14 25 -4 66 14 59 9 -3 16 4 20 20 9 36
16 22 16 -33 0 -69 1 -67 -31 -104 -16 -18 -27 -37 -24 -42 3 -5 8 -5 12 0 8
12 41 25 41 16 0 -4 -7 -14 -16 -24 -10 -11 -16 -37 -17 -63 0 -26 -3 -46 -7
-46 -3 0 -23 -15 -43 -34 -32 -29 -36 -38 -28 -57 5 -16 4 -41 -5 -74 -8 -27
-17 -66 -20 -85 l-5 -35 20 35 c11 19 21 44 21 55 1 18 2 18 11 -3 5 -13 7
-27 4 -32 -3 -4 1 -10 8 -13 8 -3 20 12 31 39 10 24 23 44 29 44 8 0 8 3 0 11
-8 8 -6 16 7 29 12 12 16 27 12 45 -4 23 -2 27 11 22 20 -7 33 28 18 47 -12
15 -5 27 13 20 6 -2 17 9 23 26 6 16 16 30 23 30 6 0 8 -5 4 -12 -4 -7 -9 -30
-10 -53 -1 -22 -4 -65 -8 -95 l-6 -55 19 50 c11 28 20 67 20 88 1 21 6 37 13
37 6 0 9 2 6 6 -3 3 -2 20 2 39 6 26 2 45 -15 82 -18 37 -24 44 -30 31 -4 -9
-4 -22 0 -28 4 -6 -1 -21 -12 -32 -18 -20 -18 -21 5 -14 16 6 22 3 22 -8 0 -9
-7 -16 -15 -16 -9 0 -18 -7 -21 -15 -4 -8 -13 -15 -21 -15 -9 0 -11 5 -6 13 4
6 6 20 4 30 -1 10 4 26 12 35 29 35 11 192 -23 192 -5 0 -17 17 -25 37 -18 42
-76 136 -87 141 -4 2 -22 31 -39 65 -27 54 -80 115 -101 117 -4 0 -26 13 -50
29 -43 28 -83 38 -186 47 -30 2 -66 11 -81 18 -15 8 -45 17 -66 21 -42 7 -186
66 -296 121 -74 37 -124 87 -134 136 -4 18 -17 50 -29 70 -18 32 -31 43 -78
66 -5 2 -8 -24 -8 -59 0 -108 -8 -60 -12 71 -4 121 -3 127 25 185 44 93 70
148 78 170 10 25 36 240 45 363 4 51 9 91 11 88 7 -7 4 -243 -4 -262 -9 -25
17 -13 40 19 15 19 23 54 30 125 9 84 8 107 -6 150 -10 28 -17 69 -17 91 0 23
-4 41 -9 41 -4 0 -20 12 -36 26 -26 24 -27 28 -21 97 4 47 1 104 -9 162 -8 50
-15 109 -15 133 0 33 -7 52 -29 80 -16 20 -37 57 -47 82 -9 25 -33 62 -53 83
-34 36 -129 97 -150 97 -6 0 -27 11 -47 25 -20 14 -48 25 -62 25 -14 0 -51 9
-82 21 -50 18 -63 19 -111 9 -30 -6 -72 -13 -94 -16 -21 -2 -44 -9 -50 -15 -7
-7 -4 -8 9 -3 13 5 17 4 12 -4 -4 -7 -2 -12 6 -12 25 -1 -16 -18 -62 -25 -24
-4 -51 -11 -60 -15 -8 -4 -34 -16 -56 -25 -51 -21 -174 -139 -174 -167 0 -18
-22 -68 -51 -118 -20 -33 -27 -58 -38 -120 -14 -82 -14 -129 0 -255 10 -89 19
-124 51 -188 5 -10 6 -22 3 -27 -3 -5 1 -20 9 -32 8 -13 17 -50 20 -82 5 -47
2 -63 -11 -78 -9 -10 -13 -21 -9 -26 4 -4 14 2 23 13 10 14 13 35 10 73 -4 38
-2 52 7 52 19 0 109 -67 119 -87 4 -11 5 -4 2 16 l-5 35 22 -20 c13 -11 35
-25 51 -32 15 -6 27 -20 28 -29 0 -10 3 -13 5 -6 8 18 -15 53 -34 53 -9 0 -32
14 -49 30 -27 24 -33 37 -33 69 0 39 0 40 54 55 30 9 65 16 78 16 21 0 21 -1
-7 -16 -35 -18 -75 -54 -75 -67 0 -12 73 2 82 16 4 7 12 5 23 -6 12 -13 27
-15 62 -10 37 5 45 3 41 -8 -2 -8 -14 -15 -26 -17 -12 -2 -22 -10 -22 -18 0
-16 -41 -19 -56 -4 -5 5 -15 5 -22 1 -10 -6 -1 -13 27 -25 55 -21 70 -20 112
9 20 13 40 21 43 17 4 -3 18 7 32 23 l25 30 -4 -32 c-7 -60 11 -34 21 30 6 38
10 50 11 30 2 -52 -19 -130 -39 -148 -11 -10 -17 -22 -14 -27 3 -5 0 -31 -6
-58 -10 -41 -16 -50 -34 -50 -28 0 -155 -62 -138 -68 7 -2 21 3 30 11 19 17
111 46 127 40 6 -2 18 20 27 49 9 29 26 84 38 122 28 92 49 126 76 126 24 0
74 -52 74 -76 0 -28 41 -95 63 -103 13 -5 29 -17 37 -26 13 -16 12 -17 -16
-11 -25 6 -34 2 -59 -26 -17 -18 -42 -41 -58 -51 -25 -16 -30 -16 -49 -2 -49
34 -103 0 -71 -45 13 -18 21 -21 49 -15 30 5 38 1 72 -33 21 -22 45 -42 53
-45 23 -9 -10 -27 -51 -27 -19 -1 -53 -8 -75 -16 -22 -8 -63 -22 -92 -31 -36
-11 -53 -21 -57 -36 -3 -12 -4 -22 -2 -24 1 -1 29 11 62 27 71 36 116 37 202
8 58 -19 63 -23 46 -35 -10 -7 -37 -13 -61 -13 -25 0 -43 -5 -43 -11 0 -8 -14
-10 -45 -6 -40 6 -45 5 -45 -13 0 -14 7 -20 23 -20 33 0 140 -29 147 -40 3 -5
18 -14 34 -19 39 -16 28 -33 -35 -53 -51 -17 -83 -30 -121 -49 -30 -15 -60
-10 -123 19 -68 32 -136 57 -148 54 -4 -1 -26 17 -48 40 -33 35 -37 37 -23 13
17 -27 72 -103 84 -115 3 -3 32 -36 64 -75 33 -38 83 -95 110 -125 122 -134
150 -174 138 -195 -4 -8 -5 -37 -2 -63 l5 -47 70 -18 c63 -16 73 -16 97 -2 31
18 38 19 38 5 0 -5 -7 -10 -14 -10 -16 0 -66 -59 -66 -78 0 -6 -10 -18 -22
-26 -21 -15 -21 -16 -3 -17 16 -1 15 -2 -5 -8 -28 -8 -41 -41 -16 -41 8 0 18
-5 22 -12 5 -7 2 -9 -8 -5 -17 6 -26 -21 -34 -102 -2 -24 -7 -47 -9 -52 -3 -4
-1 -10 5 -14 5 -3 16 10 24 29 15 36 52 56 77 40 8 -4 9 -3 5 4 -4 7 -2 17 4
24 6 7 16 21 23 31 14 21 49 13 40 -9 -3 -9 1 -14 12 -14 9 0 13 5 10 10 -15
25 13 6 38 -25 15 -19 42 -42 59 -51 l32 -17 -29 34 c-15 19 -34 33 -42 31 -7
-2 -13 2 -13 8 0 6 5 8 10 5 6 -3 10 -1 10 5 0 7 6 10 14 7 7 -3 18 -1 24 5
14 14 89 -26 97 -52 6 -19 93 -70 121 -70 9 0 14 12 15 38 1 35 2 35 8 8 4
-22 14 -32 36 -38 16 -4 37 -18 47 -30 10 -13 18 -18 18 -11 0 13 40 5 40 -8
0 -5 7 -6 16 -2 18 7 94 -16 94 -28 0 -5 9 -13 21 -20 16 -8 24 -8 33 1 8 10
8 11 -3 8 -13 -4 -61 35 -61 49 0 13 120 -6 135 -21 20 -20 32 -21 16 -2 -9
11 -7 15 13 20 45 11 51 2 54 -90 l3 -85 -46 31 c-28 19 -44 37 -41 45 3 8 -1
19 -9 25 -11 9 -12 7 -8 -11 5 -18 3 -21 -11 -16 -10 4 -21 7 -24 7 -4 0 0 5
8 11 12 9 12 10 -3 5 -10 -3 -26 -6 -35 -6 -12 0 -13 -3 -4 -12 7 -7 13 -21
13 -32 1 -17 2 -18 6 -3 2 9 11 17 20 17 11 0 13 -7 8 -28 -4 -20 -1 -33 10
-42 8 -7 15 -19 15 -28 0 -8 7 -24 16 -34 15 -16 18 -16 28 -3 10 14 13 14 31
1 17 -13 18 -17 5 -25 -8 -5 -18 -7 -22 -5 -14 9 -9 -7 11 -34 10 -15 22 -38
26 -50 6 -21 4 -23 -17 -18 -19 6 -20 5 -5 -4 19 -12 22 -41 6 -57 -8 -8 -8
-13 0 -17 13 -9 15 -56 2 -56 -10 0 -71 103 -71 119 0 5 9 12 20 14 17 4 16 4
-2 3 -14 -1 -30 8 -40 24 -18 25 -18 25 -18 3 0 -18 -6 -23 -27 -23 -27 -1
-27 -1 -9 -15 10 -8 24 -16 30 -18 7 -2 6 -10 -4 -22 -8 -10 -10 -16 -5 -13 6
4 17 3 25 -3 13 -7 13 -9 1 -9 -11 0 -10 -5 4 -20 10 -11 22 -17 26 -14 5 3 9
0 9 -5 0 -6 -12 -11 -26 -11 -15 0 -23 -4 -19 -11 4 -6 14 -8 22 -5 9 4 22 1
31 -6 13 -11 14 -10 8 10 -5 13 -3 22 3 22 11 0 12 -2 16 -62 2 -31 -1 -38
-16 -38 -11 0 -19 5 -19 11 0 5 5 7 10 4 6 -3 10 -1 10 4 0 17 -27 13 -34 -4
-3 -9 4 -21 19 -31 32 -21 32 -41 0 -41 -20 0 -27 8 -41 49 -9 27 -23 52 -31
55 -9 4 -13 14 -9 26 5 20 -31 127 -60 177 -10 15 -23 26 -29 24 -16 -7 -6
-54 11 -54 8 0 14 -10 14 -25 0 -14 9 -43 20 -65 22 -44 25 -54 10 -45 -6 4
-10 -27 -10 -84 l0 -91 -69 0 c-39 0 -72 4 -75 8 -3 5 -6 27 -7 50 -2 23 -7
42 -12 42 -6 0 -7 -19 -4 -45 5 -32 3 -45 -6 -45 -6 -1 0 -7 14 -15 26 -14 45
-43 34 -53 -3 -3 -5 0 -5 6 0 7 -6 12 -14 12 -8 0 -17 6 -19 13 -9 20 -7 -34
2 -81 5 -23 5 -45 0 -48 -4 -2 -6 -11 -2 -19 3 -8 0 -15 -5 -15 -16 0 -26 21
-13 29 12 8 -19 132 -41 159 -38 47 -84 82 -102 77 -25 -5 -47 12 -39 31 3 9
-12 23 -43 41 -64 38 -105 78 -98 96 3 8 -2 31 -10 52 -9 20 -14 41 -11 45 3
5 1 11 -4 14 -12 8 -9 26 11 54 9 13 19 19 22 14 3 -6 -2 -13 -11 -16 -14 -6
-10 -11 18 -28 19 -12 46 -22 61 -22 24 -1 25 1 12 15 -8 9 -11 19 -7 22 3 4
0 7 -8 7 -8 0 -30 11 -49 25 -38 28 -48 31 -46 13 0 -7 -3 -14 -9 -15 -5 -2
-10 6 -10 17 0 10 -11 33 -24 51 -18 24 -26 52 -32 117 -5 47 -10 86 -12 87
-1 1 -14 5 -29 9 l-28 6 21 -56 c12 -30 18 -58 15 -61 -3 -3 -1 -14 4 -24 7
-12 6 -19 -2 -21 -7 -3 -4 -12 10 -26 12 -12 21 -25 20 -29 0 -5 2 -16 7 -26
4 -9 5 -26 2 -37 -3 -11 -2 -18 2 -16 4 3 13 -10 20 -27 7 -18 19 -47 27 -65
14 -32 13 -33 -5 -27 -19 6 -19 5 -2 -52 10 -32 23 -67 29 -78 10 -17 43 -121
48 -150 1 -5 3 -12 4 -15 1 -3 4 -14 5 -25 15 -103 19 -113 74 -175 l32 -35
-22 45 c-12 25 -22 46 -21 47 0 1 -10 24 -23 50 -22 47 -22 48 -3 56 26 9 41
-1 35 -23 -3 -13 17 -35 68 -79 40 -33 77 -61 81 -61 5 0 20 -12 33 -25 13
-14 33 -26 45 -26 16 -1 17 -2 4 -6 -21 -5 -24 -23 -4 -23 21 0 26 -37 7 -54
-10 -9 -23 -16 -30 -16 -8 0 -6 -6 5 -17 17 -17 17 -18 0 -21 -9 -2 -23 2 -31
8 -10 8 -15 9 -15 2 0 -6 5 -14 11 -18 8 -4 7 -9 -2 -16 -9 -6 -4 -7 16 -1 28
8 90 8 315 5 52 -1 117 -9 144 -17 27 -8 66 -15 87 -15 35 0 38 2 37 29 -1 36
32 92 75 123 122 91 374 138 472 88 22 -11 40 -20 42 -20 3 0 1 18 -12 108 -6
44 -12 53 -31 58 -26 7 -33 34 -9 34 18 0 20 30 3 31 -7 1 -31 2 -52 3 -23 2
-44 10 -52 20 -10 15 -15 15 -33 5 -26 -17 -42 -2 -18 16 11 8 14 16 8 19 -13
9 -2 36 14 36 16 0 85 63 85 78 0 6 -7 17 -15 25 -8 8 -11 17 -8 21 4 3 -4 17
-16 30 -13 14 -21 31 -18 38 4 9 6 9 6 -3 1 -8 12 -26 26 -39 13 -12 29 -37
34 -54 5 -17 17 -58 26 -91 10 -33 24 -73 32 -89 8 -16 28 -106 44 -200 16
-94 33 -182 38 -196 5 -14 12 -45 15 -70 3 -25 14 -103 25 -175 29 -189 34
-304 22 -450 -11 -137 -26 -185 -73 -236 -23 -24 -31 -26 -151 -32 -70 -4
-136 -11 -146 -16 -10 -6 -51 -17 -91 -25 -40 -9 -81 -23 -91 -31 -9 -9 -20
-37 -23 -63 -3 -26 -9 -72 -14 -102 -9 -52 -9 -53 -11 -15 -2 65 25 188 45
202 10 7 34 15 53 18 20 3 68 15 106 27 48 14 105 22 183 25 126 4 135 8 168
83 35 81 46 360 19 520 -7 47 -21 132 -30 190 -21 138 -56 280 -68 280 -5 0
-6 -8 -2 -18 12 -27 27 -178 28 -284 0 -81 -3 -101 -18 -118 -9 -10 -15 -25
-12 -33 2 -7 -1 -21 -9 -32 -8 -10 -14 -30 -14 -44 0 -14 -9 -39 -20 -56 -23
-35 -25 -49 -7 -67 7 -7 20 -26 30 -41 10 -15 22 -25 27 -22 15 9 32 -34 25
-65 -8 -39 -62 -90 -94 -90 -30 -1 -61 -21 -61 -40 0 -9 -3 -10 -13 -2 -9 8
-25 8 -48 3 -60 -16 -149 -23 -149 -12 0 6 -24 8 -62 5 -35 -3 -70 -5 -78 -6
-33 -1 -225 -41 -230 -48 -3 -4 -30 -10 -60 -13 -164 -17 -180 -20 -180 -33 0
-7 7 -17 15 -21 25 -15 6 -50 -37 -67 -34 -14 -108 -21 -160 -15 -25 3 -31 33
-17 74 12 31 11 36 -9 53 -55 48 -3 175 118 290 106 103 175 138 405 208 50
15 98 32 108 38 19 12 24 56 6 56 -6 0 -9 -9 -6 -19 3 -14 -2 -21 -17 -25 -33
-9 -54 -6 -28 4 12 5 22 15 22 22 0 9 -3 9 -10 -2 -8 -12 -10 -10 -11 10 0 14
-3 20 -5 14 -3 -6 -16 -9 -29 -6 -41 7 -72 -6 -79 -34 -6 -21 -9 -24 -21 -14
-8 7 -15 19 -15 28 0 22 -46 79 -70 87 -11 3 -20 13 -20 21 0 8 -7 14 -15 14
-17 0 -20 -16 -5 -25 18 -11 0 -46 -47 -92 -52 -51 -86 -67 -130 -58 -24 4
-38 1 -57 -16 -31 -27 -86 -36 -86 -14 0 16 -1 16 -37 20 -28 3 -29 -2 -2 -23
13 -11 18 -23 14 -35 -9 -21 -35 -23 -35 -1 0 9 -6 14 -12 11 -8 -2 -12 -17
-10 -37 3 -30 2 -32 -21 -28 -20 4 -27 0 -31 -17 -4 -16 -13 -22 -36 -23 -27
-1 -30 1 -19 14 10 12 10 17 1 23 -9 5 -4 12 13 21 28 15 32 25 11 33 -9 4
-17 -2 -21 -14 -7 -20 -30 -26 -40 -9 -4 6 -12 7 -18 3 -7 -4 -22 -6 -34 -5
-12 2 -31 -6 -42 -17 -12 -12 -35 -23 -51 -24 -17 -2 -33 -7 -37 -10 -3 -4
-13 -7 -21 -7 -13 0 -66 -21 -104 -41 -10 -5 -25 -9 -33 -9 -8 0 -15 -4 -15
-10 0 -5 -15 -12 -34 -16 -20 -3 -46 -19 -61 -36 -25 -28 -26 -30 -8 -43 21
-17 143 -20 143 -5 0 6 7 10 17 10 9 0 30 10 47 23 21 16 39 22 55 17 34 -8
37 -28 7 -40 -15 -5 -30 -20 -35 -34 -5 -13 -21 -26 -35 -30 -13 -3 -31 -12
-38 -19 -22 -20 -107 -65 -163 -87 -11 -4 -32 -12 -47 -18 -15 -6 -42 -8 -61
-5 -19 3 -44 0 -56 -6 -31 -17 -81 -22 -103 -10 -16 9 -15 12 16 44 19 19 36
44 38 57 2 13 9 22 16 21 6 -2 12 2 12 7 0 6 7 10 15 10 8 0 15 -4 15 -10 0
-21 21 -9 31 17 6 15 16 31 22 35 8 5 7 8 -5 8 -9 0 -23 -9 -32 -21 -16 -23
-46 -20 -79 9 -12 10 -17 11 -17 3 0 -8 -7 -10 -19 -6 -11 3 -23 0 -27 -6 -5
-9 -2 -10 9 -6 10 3 17 2 17 -4 0 -15 -31 -23 -39 -10 -5 7 -12 4 -20 -12 -9
-18 -19 -22 -40 -19 -17 2 -34 -3 -45 -13 -9 -10 -19 -15 -23 -12 -3 3 -14 -2
-25 -12 -10 -10 -35 -21 -54 -24 -19 -3 -46 -15 -61 -26 -14 -12 -31 -21 -38
-21 -21 0 -105 -40 -105 -50 0 -6 -8 -10 -19 -10 -27 0 -131 -107 -131 -136 0
-7 -8 -18 -18 -23 -14 -9 -11 -11 18 -11 88 -3 186 0 214 6 23 4 28 3 20 -5
-6 -7 -58 -14 -120 -17 -118 -6 -170 -20 -153 -41 6 -6 16 -10 24 -7 13 5 39
-27 65 -81 8 -16 25 -43 37 -58 13 -16 23 -37 23 -47 0 -11 6 -23 14 -27 26
-15 121 -127 101 -119 -11 5 -33 8 -49 7 -25 -1 -28 1 -23 20 6 24 -3 33 -96
97 -29 19 -54 38 -57 41 -3 3 -16 15 -29 26 l-23 20 17 -40 c9 -22 19 -48 22
-57 6 -21 19 -24 25 -6 5 15 28 1 28 -18 0 -8 -7 -14 -15 -14 -16 0 -10 -30 9
-42 6 -4 5 -12 -3 -21 -8 -11 -9 -25 -3 -49 7 -28 13 -33 38 -33 24 0 29 -4
27 -23 -2 -15 11 -36 38 -63 l42 -42 -38 7 c-28 6 -36 4 -33 -6 5 -16 78 -24
78 -9 0 18 13 12 75 -34 70 -53 90 -57 80 -18 -3 15 -14 33 -23 40 -14 10 -14
14 -4 21 14 10 7 62 -9 62 -5 0 -9 18 -9 40 0 22 5 40 10 40 6 0 10 -9 10 -20
0 -38 32 -101 49 -98 16 3 25 -1 60 -32 9 -8 30 -22 46 -30 17 -8 39 -24 50
-36 27 -29 53 -41 95 -45 46 -4 133 10 142 24 3 5 30 11 60 11 47 1 53 -1 56
-21 4 -26 29 -38 48 -22 8 6 21 9 29 5 18 -7 20 -36 3 -36 -7 0 2 -13 19 -28
40 -33 49 -77 16 -77 -12 0 -25 -4 -29 -8 -4 -4 -18 -7 -31 -7 -14 0 -21 -4
-18 -10 3 -6 -5 -10 -19 -10 -27 0 -44 16 -24 23 7 2 1 4 -14 4 -20 0 -26 -4
-25 -18 1 -12 9 -19 22 -20 11 0 15 -3 8 -5 -7 -3 -9 -12 -6 -20 8 -22 -15
-16 -27 7 -15 28 -72 78 -88 79 -7 0 -23 5 -35 12 -33 18 -57 20 -57 4 0 -8
-6 -16 -13 -19 -6 -2 3 -4 21 -4 39 0 64 -19 42 -33 -12 -7 -12 -15 1 -57 l15
-48 58 -3 c32 -2 66 0 75 4 9 4 24 8 34 9 11 1 22 7 27 14 5 9 10 10 14 2 4
-6 4 -16 0 -22 -4 -7 -1 -10 7 -7 8 3 13 13 11 22 -3 14 1 15 15 8 20 -10 69
-9 80 1 3 4 1 7 -5 7 -6 0 -9 7 -6 15 4 9 0 15 -10 15 -9 0 -16 5 -16 10 0 15
23 12 50 -7 16 -11 25 -13 27 -6 3 8 25 10 65 6 43 -4 59 -2 54 6 -12 19 -16
52 -5 46 5 -4 7 -10 4 -15 -2 -4 9 -13 26 -20 16 -7 39 -29 50 -49 20 -35 20
-36 14 -6 -3 17 -8 38 -11 48 -8 25 9 21 39 -8 17 -18 26 -22 30 -13 3 10 13
7 36 -10 36 -26 42 -20 9 9 l-23 19 28 -6 c17 -4 27 -2 27 5 0 6 -9 11 -21 11
-11 0 -17 5 -14 10 3 6 1 10 -4 10 -6 0 -11 -4 -11 -10 0 -5 -7 -10 -15 -10
-8 0 -15 -5 -15 -11 0 -5 -5 -7 -12 -3 -8 5 -6 11 5 19 10 7 17 16 17 21 0 4
-5 3 -12 -4 -15 -15 -31 -16 -26 0 2 6 17 13 33 15 16 3 31 6 34 8 2 2 16 -2
32 -11 25 -12 29 -13 29 0 0 8 -6 17 -12 19 -7 3 -3 6 8 6 15 1 24 -7 28 -24
4 -14 11 -25 16 -25 6 0 10 -6 10 -12 1 -27 36 -56 62 -51 15 3 31 -2 41 -11
17 -17 72 -23 62 -6 -8 13 21 13 47 -1 16 -9 19 -8 12 3 -6 11 -5 11 9 -1 15
-12 17 -10 17 15 l1 29 14 -33 c8 -17 18 -32 24 -32 10 0 8 34 -4 62 -4 11 -3
18 4 18 6 0 16 -11 21 -25 11 -29 10 -28 44 -15 22 8 28 6 41 -14 15 -23 27
-25 74 -10 11 4 12 7 3 16 -7 7 -12 16 -12 21 0 5 14 -5 31 -22 27 -28 49 -39
49 -26 0 7 -42 85 -45 85 -2 0 -16 -5 -30 -10 -21 -8 -25 -15 -20 -33 6 -21 6
-21 -14 3 -11 14 -21 29 -21 34 0 5 -3 7 -6 4 -3 -4 -1 -16 6 -27 6 -12 7 -21
3 -21 -8 1 -43 69 -43 84 0 5 10 6 22 3 12 -3 29 -2 39 4 15 7 21 4 33 -18 14
-25 21 -20 17 13 -2 20 43 33 63 18 17 -12 17 -16 5 -31 -8 -10 -18 -21 -24
-25 -6 -5 -5 -8 2 -8 7 0 12 -6 10 -12 -1 -8 7 -12 21 -11 12 2 22 -2 22 -7 0
-6 -10 -10 -21 -10 -18 0 -19 -2 -9 -15 13 -16 45 -20 53 -7 2 4 2 1 1 -5 -3
-10 123 -13 571 -13 l575 0 0 2980 0 2980 -2095 0 -2095 0 0 -2980z m1788
2833 c-21 -2 -55 -2 -75 0 -21 2 -4 4 37 4 41 0 58 -2 38 -4z m-15 -53 c-3
-11 -20 -15 -71 -15 -80 0 -203 -34 -162 -45 24 -6 24 -6 -9 -13 -18 -4 -45
-7 -60 -7 -25 0 -25 1 9 22 19 13 46 28 60 34 22 11 18 12 -30 7 -39 -3 -50
-1 -40 6 24 15 98 21 103 8 3 -9 7 -9 18 0 15 12 61 18 140 18 36 0 45 -3 42
-15z m68 -16 c12 -14 11 -16 -5 -13 -11 2 -21 10 -24 17 -5 17 13 15 29 -4z
m-450 -39 c-47 -27 -70 -33 -49 -12 21 21 51 36 73 37 14 0 6 -8 -24 -25z
m267 -2 c-10 -2 -26 -2 -35 0 -10 3 -2 5 17 5 19 0 27 -2 18 -5z m-212 -48
c-23 -17 -36 -19 -36 -6 0 11 18 19 40 20 11 0 10 -3 -4 -14z m-106 -5 c0 -5
-5 -10 -11 -10 -5 0 -7 5 -4 10 3 6 8 10 11 10 2 0 4 -4 4 -10z m208 -27 c-10
-2 -26 -2 -35 0 -10 3 -2 5 17 5 19 0 27 -2 18 -5z m82 -3 c12 -8 12 -10 -5
-9 -11 0 -29 4 -40 9 -18 8 -18 9 5 9 14 0 32 -4 40 -9z m-224 -16 c-4 -11 -1
-14 12 -10 16 5 114 10 140 7 15 -1 16 -21 0 -21 -6 0 -35 -12 -65 -26 -29
-15 -56 -24 -59 -22 -2 3 11 13 30 22 52 24 50 31 -7 30 -52 -2 -102 18 -75
29 24 10 30 7 24 -9z m-93 -19 c-18 -25 -42 -39 -51 -31 -5 6 48 56 60 56 5 0
1 -11 -9 -25z m252 -25 c-11 -5 -27 -9 -35 -9 -13 -1 -13 0 0 9 8 5 24 9 35 9
l20 0 -20 -9z m-171 -35 c-11 -8 -25 -15 -33 -15 -23 0 5 25 30 27 20 2 21 1
3 -12z m166 5 c-45 -6 -41 -15 10 -23 14 -2 -9 -4 -50 -4 -41 -1 -67 1 -57 4
9 2 17 11 17 19 0 11 14 14 63 12 61 -1 61 -1 17 -8z m-62 -41 l47 -1 -38 -9
c-24 -6 -45 -5 -56 1 -10 5 -21 6 -25 3 -3 -3 -6 -1 -6 6 0 8 6 11 16 7 9 -3
37 -6 62 -7z m141 -35 c2 -2 -3 -4 -12 -4 -9 0 -17 -4 -17 -10 0 -5 -10 -10
-22 -10 -22 -1 -22 -1 -4 -11 25 -15 147 -1 153 17 2 7 105 10 196 4 4 0 6 -5
5 -11 -2 -6 12 -17 30 -23 19 -6 39 -21 45 -31 6 -11 17 -26 24 -33 18 -18 16
-32 -3 -32 -8 0 -13 -4 -10 -9 4 -5 1 -11 -4 -13 -6 -2 3 -19 19 -38 17 -20
30 -47 31 -62 0 -16 5 -28 11 -28 8 0 8 -5 -1 -15 -11 -13 -9 -15 13 -15 29 0
50 -21 41 -43 -3 -9 -15 -14 -32 -12 -14 1 -35 -3 -47 -10 -11 -8 -38 -16 -60
-20 -88 -14 -145 -29 -145 -37 0 -4 -8 -8 -18 -8 -26 0 -50 -29 -55 -65 -2
-22 -10 -31 -25 -33 -21 -3 -31 12 -14 20 11 4 2 88 -9 88 -5 0 -9 -6 -9 -13
0 -15 -2 -16 -75 -21 -27 -3 -62 -9 -76 -15 -15 -5 -30 -7 -33 -4 -3 4 -6 1
-6 -5 0 -7 -15 -12 -35 -12 -25 0 -35 -5 -35 -15 0 -13 11 -14 68 -9 41 3 62
2 54 -4 -7 -5 -36 -10 -63 -11 -27 -1 -87 -11 -132 -22 -45 -12 -92 -21 -104
-21 -31 0 -29 -24 2 -32 16 -4 25 -13 25 -27 0 -19 -4 -18 -45 12 -50 36 -51
38 -61 192 -3 53 -9 95 -13 93 -4 -3 -8 7 -9 22 -5 68 -6 77 -15 83 -4 3 0 14
10 24 17 17 31 40 65 105 17 32 48 59 70 60 9 0 18 5 20 11 2 6 35 11 81 12
42 1 77 5 77 10 0 4 -8 7 -17 7 -17 1 -17 1 0 11 36 21 149 30 166 13z m-209
-8 c0 -3 -4 -8 -10 -11 -5 -3 -10 -1 -10 4 0 6 5 11 10 11 6 0 10 -2 10 -4z
m-45 -16 c-3 -5 -10 -10 -16 -10 -5 0 -9 5 -9 10 0 6 7 10 16 10 8 0 12 -4 9
-10z m595 0 c0 -5 -7 -10 -15 -10 -8 0 -15 5 -15 10 0 6 7 10 15 10 8 0 15 -4
15 -10z m343 -470 c-3 -11 -7 -20 -9 -20 -2 0 -4 9 -4 20 0 11 4 20 9 20 5 0
7 -9 4 -20z m-308 0 c-3 -5 -16 -10 -28 -9 -20 1 -20 2 3 9 14 4 26 8 28 9 2
1 0 -3 -3 -9z m236 -27 c14 -16 16 -135 3 -176 -13 -40 -155 -75 -256 -61 -43
5 -47 8 -46 31 2 24 4 24 63 18 33 -3 80 -11 105 -17 38 -9 51 -8 78 6 40 21
52 50 52 124 0 60 -6 75 -30 85 -13 4 -12 6 1 6 9 1 23 -6 30 -16z m-356 -3
c-11 -5 -27 -9 -35 -9 -9 0 -8 4 5 9 11 5 27 9 35 9 9 0 8 -4 -5 -9z m-81 -65
c5 -13 2 -14 -17 -4 -32 17 -33 19 -10 19 12 0 23 -7 27 -15z m383 -192 c3 -7
-11 -14 -34 -18 -21 -4 -48 -11 -60 -17 -12 -6 -38 -8 -57 -5 -36 6 -89 35
-82 46 8 12 229 7 233 -6z m-112 -96 c40 -21 46 -33 29 -66 -9 -17 -21 -31
-28 -31 -22 0 -86 81 -86 109 0 12 53 4 85 -12z m-230 -75 c-3 -3 -11 0 -18 7
-9 10 -8 11 6 5 10 -3 15 -9 12 -12z m-195 -583 c0 -6 -4 -7 -10 -4 -5 3 -10
11 -10 16 0 6 5 7 10 4 6 -3 10 -11 10 -16z m1140 -359 c0 -5 -6 -10 -14 -10
-8 0 -18 5 -21 10 -3 6 3 10 14 10 12 0 21 -4 21 -10z m-740 -124 c0 -2 -8
-10 -17 -17 -16 -13 -17 -12 -4 4 13 16 21 21 21 13z m14 -31 c3 -8 1 -15 -4
-15 -6 0 -10 7 -10 15 0 8 2 15 4 15 2 0 6 -7 10 -15z m-30 -27 c-3 -4 -12 -8
-20 -8 -8 0 -14 4 -14 8 0 4 9 8 19 8 11 0 17 -4 15 -8z m838 -69 c-20 -3 -41
-7 -47 -9 -18 -5 -35 0 -35 10 0 5 7 7 16 3 8 -3 25 -1 37 5 36 17 52 20 59 8
5 -7 -6 -13 -30 -17z m-722 6 c11 -13 10 -14 -4 -9 -9 3 -16 10 -16 15 0 13 6
11 20 -6z m103 -21 c-6 -17 -33 -19 -33 -1 0 7 9 13 19 14 14 1 18 -3 14 -13z
m147 -53 c-1 -13 -3 -13 -15 3 -19 26 -19 42 0 26 8 -7 15 -20 15 -29z m700
-12 c0 -5 -4 -9 -10 -9 -5 0 -10 7 -10 16 0 8 5 12 10 9 6 -3 10 -10 10 -16z
m168 4 c5 -18 -19 -16 -43 3 -19 15 -19 15 9 12 16 -2 31 -9 34 -15z m-180
-36 c22 -25 5 -35 -19 -11 -13 14 -17 26 -13 39 6 15 9 16 12 4 3 -7 11 -22
20 -32z m82 20 c0 -6 -11 -44 -25 -82 -14 -39 -26 -71 -25 -72 4 -28 -2 -44
-14 -40 -11 4 -13 1 -9 -10 5 -13 2 -15 -13 -9 -17 6 -18 6 -4 -9 11 -10 15
-27 12 -50 l-4 -36 -33 25 c-27 21 -34 23 -39 11 -3 -9 0 -15 8 -15 23 0 46
-35 43 -67 -1 -17 -5 -29 -9 -27 -4 3 -4 -11 -1 -31 5 -29 2 -35 -11 -35 -16
0 -16 -1 -2 -16 24 -24 20 -54 -6 -54 -22 -1 -23 -1 -4 -15 11 -8 15 -15 9
-15 -6 0 -9 -9 -6 -20 3 -11 1 -20 -4 -20 -5 0 -7 -16 -5 -35 3 -21 0 -35 -7
-35 -6 0 -12 10 -12 23 -6 99 -5 148 3 153 5 3 5 11 -2 19 -12 15 -24 275 -12
275 11 0 34 58 37 92 1 17 8 34 15 38 9 6 7 10 -9 15 -25 8 -29 28 -4 23 21
-4 68 -71 54 -76 -5 -2 -7 -10 -4 -18 4 -10 0 -12 -11 -8 -21 8 -20 2 3 -25
l19 -22 6 38 c3 21 8 62 12 91 5 47 8 52 30 52 13 0 24 -6 24 -13z m85 -53
c15 -28 17 -38 7 -42 -6 -2 -27 -19 -46 -37 -25 -24 -33 -39 -29 -54 4 -17 1
-21 -17 -21 -17 0 -20 4 -15 23 4 12 16 30 27 39 12 11 18 24 14 34 -3 8 -3
26 0 39 6 24 7 24 32 7 l27 -17 -22 31 c-12 17 -20 34 -16 37 9 10 16 2 38
-39z m-880 18 c-3 -3 -11 0 -18 7 -9 10 -8 11 6 5 10 -3 15 -9 12 -12z m573
-28 c-4 -3 -12 5 -18 18 -12 22 -12 22 6 6 10 -10 15 -20 12 -24z m62 -26 c0
-6 -6 -5 -15 2 -8 7 -15 14 -15 16 0 2 7 1 15 -2 8 -4 15 -11 15 -16z m-75
-16 c-3 -3 -11 0 -18 7 -9 10 -8 11 6 5 10 -3 15 -9 12 -12z m24 -56 c13 -16
22 -236 9 -236 -7 0 -13 60 -9 84 1 6 -2 19 -8 30 -5 12 -14 36 -20 54 -9 27
-8 32 7 33 14 0 13 3 -5 16 -13 8 -23 19 -23 24 0 14 36 10 49 -5z m-111 -103
c5 -17 -26 -29 -40 -15 -6 6 -7 15 -3 22 9 14 37 9 43 -7z m-622 -118 c18 -15
18 -15 -5 -13 -14 2 -26 9 -29 16 -5 17 10 15 34 -3z m516 -312 c20 -43 39
-91 43 -108 l5 -30 -19 23 c-11 12 -31 22 -45 22 -21 0 -26 5 -27 28 -1 15 -2
53 -3 85 -2 31 0 57 4 57 3 0 22 -35 42 -77z m-467 47 c0 -22 -39 -19 -43 3
-3 15 1 18 20 15 12 -2 23 -10 23 -18z m13 -87 c5 -17 -26 -29 -40 -15 -6 6
-7 15 -3 22 9 14 37 9 43 -7z m82 -38 c0 -9 -7 -18 -16 -22 -18 -7 -39 11 -30
26 11 17 46 13 46 -4z m1154 -11 c9 -24 1 -31 -40 -32 l-37 -2 23 25 c27 29
45 32 54 9z m-94 -14 c0 -11 -4 -20 -10 -20 -5 0 -10 9 -10 20 0 11 5 20 10
20 6 0 10 -9 10 -20z m-975 -20 c0 -22 -39 -19 -43 3 -3 15 1 18 20 15 12 -2
23 -10 23 -18z m289 -52 c11 -10 15 -18 9 -18 -15 0 -63 40 -63 52 0 10 15 1
54 -34z m27 25 c13 -16 12 -17 -3 -4 -17 13 -22 21 -14 21 2 0 10 -8 17 -17z
m-96 -64 c-4 -5 -2 -9 3 -9 6 0 8 -10 5 -21 -6 -20 -8 -19 -38 13 -26 27 -32
40 -28 62 l6 28 28 -32 c16 -17 27 -36 24 -41z m-305 35 c0 -8 -9 -14 -20 -14
-22 0 -28 26 -7 33 16 6 27 -1 27 -19z m88 -31 c5 -17 -26 -29 -40 -15 -6 6
-7 15 -3 22 9 14 37 9 43 -7z m310 -18 c-3 -3 -9 2 -12 12 -6 14 -5 15 5 6 7
-7 10 -15 7 -18z m472 21 c0 -2 -7 -6 -15 -10 -8 -3 -15 -1 -15 4 0 6 7 10 15
10 8 0 15 -2 15 -4z m270 -26 c0 -5 -12 -10 -27 -10 -22 0 -25 2 -13 10 20 13
40 13 40 0z m-340 -50 c0 -5 -2 -10 -4 -10 -3 0 -8 5 -11 10 -3 6 -1 10 4 10
6 0 11 -4 11 -10z m-520 -15 c0 -8 -4 -15 -10 -15 -5 0 -10 7 -10 15 0 8 5 15
10 15 6 0 10 -7 10 -15z m97 -77 c-3 -8 -6 -5 -6 6 -1 11 2 17 5 13 3 -3 4
-12 1 -19z m178 -8 c3 -5 1 -10 -4 -10 -6 0 -11 5 -11 10 0 6 2 10 4 10 3 0 8
-4 11 -10z m-295 -65 c10 -13 9 -15 -8 -15 -15 0 -20 5 -16 15 4 8 7 15 9 15
1 0 8 -7 15 -15z m-360 -527 c0 -28 -16 -55 -26 -45 -4 4 -2 13 4 19 7 7 12
20 12 30 0 10 2 18 5 18 3 0 5 -10 5 -22z m500 -404 c0 -9 -7 -14 -17 -12 -25
5 -28 28 -4 28 12 0 21 -6 21 -16z m-1145 -94 c-3 -5 -14 -10 -23 -9 -14 0
-13 2 3 9 27 11 27 11 20 0z m-52 -17 c-7 -2 -21 -2 -30 0 -10 3 -4 5 12 5 17
0 24 -2 18 -5z m-204 -27 c-2 -2 -29 -6 -59 -10 -38 -4 -50 -3 -40 4 13 9 109
15 99 6z m-126 -13 c-7 -2 -21 -2 -30 0 -10 3 -4 5 12 5 17 0 24 -2 18 -5z
m1147 -65 c0 -5 -9 -3 -20 4 -11 7 -20 16 -20 20 0 5 9 3 20 -4 11 -7 20 -16
20 -20z m-750 -3 c13 -14 21 -25 18 -25 -2 0 -15 11 -28 25 -13 14 -21 25 -18
25 2 0 15 -11 28 -25z m814 -40 c2 -7 18 -16 35 -20 17 -4 31 -10 31 -15 0
-10 57 -40 78 -40 8 0 12 6 8 15 -4 11 1 15 18 15 17 0 23 -5 22 -17 -2 -10
-9 -18 -16 -18 -21 0 -23 -20 -4 -36 13 -11 18 -11 21 -1 3 6 11 12 19 12 8 0
14 5 14 11 0 8 4 8 14 0 7 -6 21 -9 30 -5 9 3 16 1 16 -6 0 -6 5 -8 10 -5 6 3
13 -1 16 -9 3 -9 12 -16 20 -16 8 0 14 -4 14 -8 0 -17 -13 -21 -31 -11 -15 7
-17 6 -13 -5 3 -9 -3 -17 -15 -21 -23 -7 -28 -25 -8 -26 9 0 9 -2 -1 -6 -19
-7 -52 26 -45 45 4 14 3 15 -6 2 -9 -12 -13 -12 -33 6 -13 11 -31 26 -41 33
-15 12 -17 12 -11 -4 5 -13 3 -16 -7 -13 -8 3 -13 14 -12 25 1 14 -20 33 -77
72 -44 29 -80 57 -80 62 0 12 28 0 34 -16z m-159 -15 c25 -11 -1 -11 -35 0
-20 6 -21 8 -5 8 11 0 29 -3 40 -8z m-1175 -46 c0 -11 -3 -12 -12 -4 -7 6 -22
17 -33 25 -18 13 -17 14 13 4 17 -6 32 -17 32 -25z m1275 -42 c-8 -8 -25 10
-25 26 0 13 2 13 14 -4 8 -10 13 -21 11 -22z m783 -359 c7 -12 12 -49 12 -82
0 -33 5 -83 11 -112 7 -33 8 -81 3 -138 l-8 -86 -8 135 c-4 74 -12 173 -19
220 -6 47 -12 168 -14 270 l-2 185 6 -185 c5 -110 12 -194 19 -207z m-2038
361 c0 -2 -7 -4 -15 -4 -8 0 -15 4 -15 10 0 5 7 7 15 4 8 -4 15 -8 15 -10z
m121 -21 c13 -17 13 -17 -6 -3 -11 8 -22 16 -24 17 -2 2 0 3 6 3 6 0 17 -8 24
-17z m1194 -43 c-7 -21 7 -54 38 -87 15 -17 27 -21 45 -16 22 5 24 3 19 -18
-4 -20 3 -31 43 -64 27 -22 47 -41 46 -43 -7 -6 -62 24 -84 46 l-23 24 7 -26
c10 -41 -3 -30 -26 20 -18 42 -22 45 -37 33 -28 -21 -29 -23 -10 -16 9 4 17 2
17 -3 0 -6 -5 -10 -11 -10 -8 0 -7 -5 1 -15 10 -12 10 -19 2 -27 -7 -7 -13 -9
-13 -5 -1 4 -2 11 -3 16 -2 14 -72 79 -87 81 -8 2 -25 2 -39 1 l-25 -2 23 -10
c14 -5 20 -13 16 -20 -5 -8 -1 -10 14 -7 13 4 23 0 26 -8 3 -8 12 -14 21 -14
8 0 15 -7 15 -15 0 -8 5 -15 10 -15 6 0 10 -4 10 -10 0 -14 -37 -12 -44 3 -3
9 -9 7 -19 -5 -17 -21 -31 -24 -24 -4 4 9 0 12 -11 10 -12 -3 -26 14 -49 59
-17 34 -35 61 -40 60 -5 -1 -8 10 -7 24 0 20 6 27 25 29 13 1 42 7 63 12 27 7
46 7 58 1 17 -9 18 -8 6 10 -7 11 -8 24 -4 28 5 4 11 2 13 -4 3 -7 11 -13 19
-13 8 0 11 6 7 17 -4 11 -3 14 6 9 6 -4 9 -16 6 -26z m-632 -25 c21 -25 34
-45 29 -45 -6 0 -12 7 -16 15 -3 8 -11 13 -18 10 -7 -3 -23 11 -36 30 -32 51
-5 44 41 -10z m-329 -29 c27 -46 36 -76 13 -41 -35 52 -60 98 -50 92 6 -4 23
-27 37 -51z m1056 33 c0 -12 -29 -24 -37 -16 -3 4 -3 13 0 21 6 16 37 11 37
-5z m-1006 -15 c3 -8 2 -12 -4 -9 -6 3 -10 10 -10 16 0 14 7 11 14 -7z m466
-57 c0 -9 45 1 78 19 14 7 31 10 38 7 8 -3 14 0 14 5 0 15 86 -12 111 -34 11
-10 18 -23 15 -30 -3 -7 3 -16 13 -19 11 -3 21 -17 23 -30 3 -13 2 -22 -3 -20
-4 3 -10 1 -14 -5 -3 -5 3 -10 14 -10 29 0 86 -36 71 -45 -6 -4 -18 -4 -27 -1
-14 6 -14 4 1 -19 16 -24 16 -25 -3 -25 -11 0 -19 6 -17 13 1 6 1 9 -1 5 -7
-13 -47 -8 -67 7 -11 8 -15 19 -10 27 6 10 4 10 -9 -1 -12 -9 -17 -10 -17 -2
0 7 -5 9 -12 5 -7 -5 -34 -9 -61 -11 -42 -2 -49 0 -57 21 -9 24 -27 41 -45 41
-5 0 -10 9 -10 21 -1 11 -8 33 -18 47 -9 15 -17 30 -17 35 0 5 -9 17 -20 27
-11 10 -20 23 -20 29 0 12 49 -44 50 -57z m620 42 c0 -12 -29 -24 -37 -16 -3
4 -3 13 0 21 6 16 37 11 37 -5z m-690 1 c0 -5 -2 -10 -4 -10 -3 0 -8 5 -11 10
-3 6 -1 10 4 10 6 0 11 -4 11 -10z m-870 -19 c0 -10 -8 -21 -19 -24 -14 -3
-18 1 -16 17 3 27 2 26 20 26 8 0 15 -8 15 -19z m-50 -22 c0 -18 -1 -18 -18
-1 -21 19 -19 34 3 25 8 -3 15 -14 15 -24z m219 4 c0 -25 -1 -25 -8 -8 -5 11
-7 23 -4 28 8 14 13 7 12 -20z m481 7 c6 -11 8 -20 6 -20 -3 0 -10 9 -16 20
-6 11 -8 20 -6 20 3 0 10 -9 16 -20z m1029 -18 c0 -24 -1 -25 -9 -7 -12 28
-12 47 0 40 6 -3 10 -18 9 -33z m-51 9 c3 -8 -1 -12 -9 -9 -7 2 -15 10 -17 17
-3 8 1 12 9 9 7 -2 15 -10 17 -17z m-1608 -11 c0 -5 -5 -10 -11 -10 -5 0 -7 5
-4 10 3 6 8 10 11 10 2 0 4 -4 4 -10z m-30 -35 c0 -9 -9 -15 -25 -15 -16 0
-25 6 -25 15 0 9 9 15 25 15 16 0 25 -6 25 -15z m484 0 c3 -8 1 -15 -3 -15 -5
0 -11 7 -15 15 -3 8 -1 15 3 15 5 0 11 -7 15 -15z m434 -3 c2 -7 -3 -12 -12
-12 -9 0 -16 -3 -16 -7 0 -14 96 -93 113 -93 9 0 17 -6 17 -14 0 -19 -17 -29
-25 -16 -5 8 -15 6 -31 -5 -26 -17 -49 -11 -74 19 -14 17 -35 22 -25 6 4 -7
-3 -7 -20 0 -15 6 -44 10 -66 10 -27 0 -39 4 -39 14 0 23 -22 31 -32 12 -10
-18 -48 -22 -48 -5 0 6 9 8 20 4 25 -8 25 2 3 29 -17 20 -17 20 0 6 15 -11 20
-11 27 -1 6 11 12 11 31 -3 26 -18 43 -21 34 -6 -3 6 -1 10 4 10 6 0 11 -7 11
-15 0 -12 4 -13 25 -3 14 6 25 17 25 25 0 7 5 13 10 13 15 0 49 37 42 46 -4 3
-1 5 7 2 8 -2 17 -10 19 -16z m-959 -36 c-11 -12 -29 2 -29 25 0 18 1 18 19 2
10 -10 15 -22 10 -27z m217 6 c-4 -3 -14 2 -24 12 -16 16 -16 17 1 10 11 -4
17 -1 18 7 1 8 3 6 6 -4 3 -10 2 -21 -1 -25z m1400 27 c10 -17 -13 -36 -27
-22 -12 12 -4 33 11 33 5 0 12 -5 16 -11z m-1516 -24 c0 -8 -9 -15 -20 -15
-11 0 -20 7 -20 15 0 8 9 15 20 15 11 0 20 -7 20 -15z m44 0 c-7 -16 -24 -21
-24 -6 0 8 7 13 27 20 1 1 0 -6 -3 -14z m1593 -7 c-3 -8 -6 -5 -6 6 -1 11 2
17 5 13 3 -3 4 -12 1 -19z m-1697 2 c0 -5 -4 -10 -10 -10 -5 0 -10 5 -10 10 0
6 5 10 10 10 6 0 10 -4 10 -10z m510 -15 c0 -8 -4 -15 -10 -15 -5 0 -10 7 -10
15 0 8 5 15 10 15 6 0 10 -7 10 -15z m-370 -25 c0 -13 -7 -20 -20 -20 -13 0
-20 7 -20 20 0 13 7 20 20 20 13 0 20 -7 20 -20z m-115 0 c3 -5 -1 -10 -9 -10
-9 0 -16 5 -16 10 0 6 4 10 9 10 6 0 13 -4 16 -10z m35 0 c0 -5 -5 -10 -11
-10 -5 0 -7 5 -4 10 3 6 8 10 11 10 2 0 4 -4 4 -10z m371 -26 c17 -21 -5 -17
-32 5 -24 20 -24 20 -2 14 12 -3 28 -11 34 -19z m1061 -48 c9 -16 7 -18 -7
-13 -12 5 -15 2 -13 -11 2 -9 10 -16 16 -14 7 1 12 -4 12 -12 0 -11 -7 -13
-30 -6 -19 5 -30 5 -30 -1 0 -5 -6 -9 -12 -8 -32 4 -38 -1 -32 -26 4 -15 2
-25 -5 -25 -6 0 -11 12 -11 26 0 24 -2 25 -27 18 -38 -11 -153 -10 -161 2 -4
5 -13 9 -19 10 -28 2 -31 5 -37 35 -3 17 -10 28 -16 24 -5 -3 -10 -1 -10 4 0
14 6 14 31 1 14 -8 19 -7 19 2 0 8 3 9 8 3 13 -18 57 -36 89 -37 31 -1 68 20
132 75 l33 28 30 -28 c16 -15 34 -37 40 -47z m218 64 c0 -5 -5 -10 -11 -10 -5
0 -7 5 -4 10 3 6 8 10 11 10 2 0 4 -4 4 -10z m-1082 -15 c3 -3 -6 -5 -21 -5
-14 0 -29 5 -32 10 -7 11 42 6 53 -5z m908 -42 c3 -33 -10 -28 -29 12 -22 46
-21 49 6 29 12 -9 23 -28 23 -41z m-1481 17 c0 -22 -39 -19 -43 3 -3 15 1 18
20 15 12 -2 23 -10 23 -18z m1527 11 c3 8 11 10 23 6 17 -7 17 -8 -1 -22 -27
-20 -41 -18 -47 6 -4 16 -3 18 8 9 10 -8 14 -8 17 1z m138 -11 c0 -5 -2 -10
-4 -10 -3 0 -8 5 -11 10 -3 6 -1 10 4 10 6 0 11 -4 11 -10z m313 -7 c24 -13
28 -18 15 -21 -9 -2 -26 2 -37 7 -23 13 -40 -4 -22 -22 7 -7 11 -8 11 0 0 12
47 5 55 -8 8 -11 -33 -31 -46 -23 -6 4 -16 0 -21 -7 -8 -11 -9 -11 -5 2 7 20
-28 41 -62 37 -13 -2 -26 2 -28 8 -3 11 17 19 71 30 10 2 21 6 24 9 8 7 10 7
45 -12z m-1526 1 c-3 -3 -12 -4 -19 -1 -8 3 -5 6 6 6 11 1 17 -2 13 -5z m113
-4 c13 -9 13 -10 0 -9 -8 0 -24 4 -35 9 l-20 9 20 0 c11 0 27 -4 35 -9z m1048
-15 l27 -25 -32 0 c-18 0 -35 5 -39 12 -5 7 -3 8 6 3 9 -5 10 -2 5 14 -8 28 0
27 33 -4z m-1251 -1 c-3 -3 -12 -4 -19 -1 -8 3 -5 6 6 6 11 1 17 -2 13 -5z
m1393 -16 c0 -5 -9 -4 -20 2 -11 6 -20 12 -20 14 0 2 9 2 20 -1 11 -3 20 -9
20 -15z m-1660 3 c0 -6 -9 -9 -20 -8 -11 1 -20 5 -20 9 0 4 9 8 20 8 11 0 20
-4 20 -9z m718 -11 c1 0 9 0 17 0 8 0 14 -4 13 -9 -2 -4 7 -17 19 -27 13 -11
33 -39 46 -63 15 -29 30 -45 45 -47 12 -2 22 0 22 5 0 10 -21 29 -35 30 -5 1
-10 7 -10 14 0 18 -25 58 -33 54 -4 -2 -15 4 -24 15 -15 15 -15 18 -3 18 8 0
15 -4 15 -9 0 -10 38 -24 58 -22 6 1 12 -3 12 -9 0 -5 7 -10 16 -10 14 0 14 3
4 15 -7 8 -20 15 -30 15 -9 0 -25 10 -36 21 -14 16 -15 21 -4 17 8 -3 24 -2
36 2 16 6 30 -2 67 -40 45 -46 60 -69 35 -54 -15 10 -68 13 -68 4 0 -15 14
-19 27 -9 10 9 13 8 13 -5 0 -12 5 -14 25 -6 21 8 25 7 25 -10 0 -11 7 -20 15
-20 12 0 10 11 -11 53 -22 44 -23 49 -7 35 11 -10 25 -18 32 -18 8 0 11 -6 7
-15 -5 -15 16 -21 53 -15 10 1 9 -4 -4 -17 -16 -16 -17 -18 -3 -21 9 -2 35 6
59 18 34 18 43 19 50 8 6 -9 1 -14 -19 -16 -15 -2 -30 -8 -33 -13 -3 -6 -43
-11 -88 -13 -58 -3 -86 -8 -94 -19 -18 -23 -40 -26 -59 -9 -12 10 -18 11 -18
4 0 -7 5 -12 10 -12 7 0 6 -8 -1 -22 -9 -16 -14 -19 -17 -9 -2 7 -7 9 -11 4
-10 -17 -55 -23 -71 -10 -8 7 -26 35 -40 62 -14 27 -34 59 -45 70 -11 11 -21
29 -22 40 0 11 -4 30 -8 42 -7 20 -5 21 32 13 21 -5 39 -9 41 -10z m226 10
c34 -13 33 -29 -1 -27 -17 2 -29 9 -31 20 -4 20 -2 20 32 7z m486 0 c0 -5 -4
-10 -9 -10 -6 0 -13 5 -16 10 -3 6 1 10 9 10 9 0 16 -4 16 -10z m150 0 c-20
-13 -33 -13 -25 0 3 6 14 10 23 10 15 0 15 -2 2 -10z m-1370 -28 c0 -15 -2
-15 -10 -2 -13 20 -13 33 0 25 6 -3 10 -14 10 -23z m84 6 c-3 -5 0 -15 6 -23
19 -23 -1 -18 -27 7 -30 28 -29 36 2 30 14 -2 22 -8 19 -14z m1336 1 c0 -6 -4
-7 -10 -4 -5 3 -10 11 -10 16 0 6 5 7 10 4 6 -3 10 -11 10 -16z m-1030 -7 c0
-4 -9 -8 -20 -9 -16 -1 -17 1 -7 12 12 13 27 11 27 -3z m1123 4 c9 3 17 1 17
-4 0 -13 -36 -26 -49 -17 -6 3 -7 13 -4 21 4 11 8 12 13 4 3 -6 14 -8 23 -4z
m77 10 c0 -3 -4 -8 -10 -11 -5 -3 -10 -1 -10 4 0 6 5 11 10 11 6 0 10 -2 10
-4z m-280 -33 c0 -8 5 -11 10 -8 6 4 8 10 5 15 -5 8 33 26 39 18 1 -1 15 -20
31 -41 31 -42 28 -57 -6 -34 -13 10 -33 14 -49 10 -22 -4 -31 1 -48 25 -12 16
-19 32 -16 35 10 10 34 -4 34 -20z m-1180 -5 c0 -6 -6 -5 -15 2 -8 7 -15 14
-15 16 0 2 7 1 15 -2 8 -4 15 -11 15 -16z m110 2 c0 -5 -7 -7 -15 -4 -8 4 -12
10 -9 15 6 11 24 2 24 -11z m994 -10 c41 -15 30 -28 -13 -17 -22 6 -38 14 -35
19 7 10 17 10 48 -2z m351 1 c3 -6 -6 -8 -22 -5 -37 7 -42 14 -10 14 14 0 28
-4 32 -9z m-505 -10 c0 -5 -7 -11 -15 -15 -9 -3 -15 0 -15 9 0 8 7 15 15 15 8
0 15 -4 15 -9z m44 0 c3 -5 -3 -11 -14 -14 -13 -3 -20 0 -20 9 0 15 26 19 34
5z m582 -39 c-11 -10 -15 4 -8 28 l7 25 3 -23 c2 -13 1 -26 -2 -30z m-1435 21
c12 -15 12 -16 -3 -10 -9 3 -18 2 -20 -3 -2 -5 -12 -2 -23 7 -20 15 -20 15 3
10 12 -3 22 -1 22 4 0 13 6 11 21 -8z m-165 -7 c20 -21 17 -28 -6 -14 -11 7
-20 16 -20 20 0 12 10 9 26 -6z m752 7 c-10 -2 -26 -2 -35 0 -10 3 -2 5 17 5
19 0 27 -2 18 -5z m672 -3 c13 -8 13 -10 -2 -10 -9 0 -20 5 -23 10 -8 13 5 13
25 0z m-1380 -15 c0 -8 -4 -15 -10 -15 -5 0 -7 7 -4 15 4 8 8 15 10 15 2 0 4
-7 4 -15z m27 -7 c-3 -8 -6 -5 -6 6 -1 11 2 17 5 13 3 -3 4 -12 1 -19z m1513
-28 c0 -5 -4 -10 -10 -10 -5 0 -10 5 -10 10 0 6 5 10 10 10 6 0 10 -4 10 -10z
m-720 -18 c0 -4 -13 -13 -30 -19 -25 -9 -30 -9 -30 4 0 9 6 13 14 10 8 -3 17
1 20 9 6 15 26 11 26 -4z m680 -44 c0 -6 7 -19 15 -28 15 -17 48 -90 40 -90
-2 0 -11 14 -20 30 -9 17 -22 30 -31 30 -8 0 -12 5 -9 10 3 6 2 10 -2 10 -5 0
-18 7 -29 15 -18 14 -18 14 3 9 18 -5 21 -3 16 17 -4 15 -3 20 5 15 7 -4 12
-12 12 -18z m-900 -19 c0 -6 -4 -7 -10 -4 -5 3 -10 11 -10 16 0 6 5 7 10 4 6
-3 10 -11 10 -16z m447 -14 c-14 -10 -15 -15 -6 -21 8 -4 15 -2 17 5 2 7 10 1
18 -15 15 -28 10 -69 -7 -59 -5 4 -9 2 -9 -4 0 -5 -8 -8 -17 -6 -10 2 -21 4
-25 4 -4 1 -16 11 -28 23 -11 12 -20 18 -20 13 0 -5 10 -19 22 -32 29 -31 7
-29 -30 2 -17 14 -34 25 -38 25 -16 1 -59 39 -52 46 4 4 19 -1 32 -10 32 -20
42 -21 25 0 -10 13 -10 17 2 25 12 7 86 14 112 10 4 0 7 4 7 11 0 6 3 8 7 4 5
-4 0 -14 -10 -21z m71 -46 c-2 -6 -11 -4 -22 4 -14 10 -16 20 -11 37 l8 24 14
-28 c8 -15 13 -32 11 -37z m52 38 c0 -7 -9 -13 -20 -14 -23 -2 -26 7 -8 25 13
13 28 7 28 -11z m-625 -7 c3 -5 1 -10 -4 -10 -6 0 -11 5 -11 10 0 6 2 10 4 10
3 0 8 -4 11 -10z m916 0 c21 -12 26 -36 7 -42 -7 -3 -2 -13 12 -26 19 -18 20
-22 7 -22 -9 0 -22 10 -28 22 -7 13 -18 29 -26 36 -16 16 -17 42 -2 42 6 0 19
-5 30 -10z m-1032 -29 c-15 -5 -22 6 -14 19 6 9 10 9 16 -1 5 -8 4 -15 -2 -18z
m-63 -40 c-3 -5 -15 -7 -26 -4 -28 7 -25 13 6 13 14 0 23 -4 20 -9z m544 -7
c0 -11 -5 -14 -16 -10 -9 3 -18 6 -20 6 -3 0 -2 5 1 10 10 16 35 12 35 -6z
m305 -14 c16 -17 16 -20 2 -26 -19 -7 -33 1 -47 27 -9 16 -7 19 8 19 10 0 27
-9 37 -20z m-1055 -8 c0 -16 -32 -12 -37 5 -3 7 4 11 16 10 12 -1 21 -7 21
-15z m1415 8 c3 -5 1 -10 -4 -10 -6 0 -11 5 -11 10 0 6 2 10 4 10 3 0 8 -4 11
-10z m-1211 -31 c-4 -6 -11 -6 -20 2 -21 17 -17 31 6 19 11 -6 18 -15 14 -21z
m621 -8 c-6 -5 -25 10 -25 20 0 5 6 4 14 -3 8 -7 12 -15 11 -17z m545 -6 c7
-9 10 -18 7 -21 -10 -11 -37 5 -37 21 0 19 14 19 30 0z"/>
<path d="M1980 5279 c0 -5 5 -7 10 -4 6 3 10 8 10 11 0 2 -4 4 -10 4 -5 0 -10
-5 -10 -11z"/>
<path d="M1881 5115 c1 -19 18 -51 18 -35 0 8 -4 22 -9 30 -5 8 -9 11 -9 5z"/>
<path d="M2720 726 c0 -9 5 -16 10 -16 6 0 10 4 10 9 0 6 -4 13 -10 16 -5 3
-10 -1 -10 -9z"/>
<path d="M2380 686 c0 -8 5 -18 10 -21 6 -3 10 1 10 9 0 8 -4 18 -10 21 -5 3
-10 -1 -10 -9z"/>
<path d="M2337 669 c7 -7 15 -10 18 -7 3 3 -2 9 -12 12 -14 6 -15 5 -6 -5z"/>
<path d="M2310 656 c0 -2 8 -10 18 -17 15 -13 16 -12 3 4 -13 16 -21 21 -21
13z"/>
<path d="M2077 609 c7 -7 15 -10 18 -7 3 3 -2 9 -12 12 -14 6 -15 5 -6 -5z"/>
<path d="M2200 566 c6 -6 20 -11 32 -13 16 -2 19 0 9 6 -11 7 -11 9 0 14 8 3
0 4 -18 4 -20 -1 -28 -6 -23 -11z"/>
<path d="M2243 523 c9 -2 23 -2 30 0 6 3 -1 5 -18 5 -16 0 -22 -2 -12 -5z"/>
<path d="M2473 455 c-7 -8 -13 -22 -13 -31 0 -11 -5 -14 -16 -10 -20 8 -64 -3
-64 -15 0 -16 31 -23 40 -10 4 7 13 11 21 10 31 -5 99 22 99 41 0 5 -45 31
-53 30 -1 -1 -8 -7 -14 -15z"/>
<path d="M2295 390 c3 -5 10 -10 16 -10 5 0 9 5 9 10 0 6 -7 10 -16 10 -8 0
-12 -4 -9 -10z"/>
<path d="M1880 400 c0 -6 7 -10 15 -10 8 0 15 2 15 4 0 2 -7 6 -15 10 -8 3
-15 1 -15 -4z"/>
<path d="M2060 406 c0 -2 9 -6 20 -9 11 -3 18 -1 14 4 -5 9 -34 13 -34 5z"/>
<path d="M1900 360 c0 -15 7 -20 24 -20 30 0 43 17 26 33 -10 9 -11 9 -6 0 3
-6 2 -14 -4 -18 -6 -3 -13 1 -16 9 -9 23 -24 20 -24 -4z"/>
<path d="M2770 370 c0 -5 5 -10 11 -10 5 0 7 5 4 10 -3 6 -8 10 -11 10 -2 0
-4 -4 -4 -10z"/>
<path d="M2530 156 c0 -19 26 -22 36 -3 4 6 4 9 -1 5 -4 -4 -14 -3 -22 3 -10
9 -13 8 -13 -5z"/>
<path d="M2626 125 c4 -8 8 -15 10 -15 2 0 4 7 4 15 0 8 -4 15 -10 15 -5 0 -7
-7 -4 -15z"/>
<path d="M2775 70 c3 -5 8 -10 11 -10 2 0 4 5 4 10 0 6 -5 10 -11 10 -5 0 -7
-4 -4 -10z"/>
<path d="M1455 5790 c-3 -5 3 -10 14 -10 11 0 23 5 26 10 3 6 -3 10 -14 10
-11 0 -23 -4 -26 -10z"/>
<path d="M1077 4823 c-13 -12 -7 -100 7 -112 12 -10 16 -5 26 24 9 29 16 36
31 32 28 -8 23 5 -15 36 -38 29 -40 30 -49 20z"/>
<path d="M1180 4695 c0 -8 5 -15 10 -15 6 0 10 7 10 15 0 8 -4 15 -10 15 -5 0
-10 -7 -10 -15z"/>
<path d="M1421 4627 c2 -1 11 -8 19 -14 11 -9 20 -8 34 3 18 13 17 14 -19 14
-21 0 -36 -1 -34 -3z"/>
<path d="M1826 4411 c-4 -7 -5 -15 -2 -18 9 -9 19 4 14 18 -4 11 -6 11 -12 0z"/>
<path d="M1370 3975 c-7 -8 -31 -16 -54 -16 -22 -1 -54 -4 -69 -8 l-29 -6 32
-37 c18 -21 41 -38 50 -38 13 0 17 -6 13 -18 -2 -10 2 -24 11 -31 12 -10 14
-9 9 8 -3 12 6 34 24 57 15 21 23 35 17 31 -7 -4 -17 0 -24 8 -11 13 -8 15 14
15 21 0 26 5 26 25 0 29 -3 31 -20 10z m-75 -55 c-3 -5 -10 -10 -16 -10 -5 0
-9 5 -9 10 0 6 7 10 16 10 8 0 12 -4 9 -10z"/>
<path d="M1380 3768 c19 -19 54 -48 77 -65 23 -17 40 -33 36 -36 -3 -3 -12 0
-20 8 -10 10 -20 12 -31 6 -12 -6 -24 -5 -37 5 -10 8 -27 14 -36 14 -10 0 -19
5 -21 11 -4 12 -88 25 -88 14 0 -3 10 -19 22 -35 17 -23 19 -33 10 -42 -14
-14 -16 -42 -2 -33 6 3 10 -1 10 -9 0 -20 -9 -20 -29 -1 -9 8 -26 24 -39 35
-13 12 -27 19 -30 15 -8 -8 108 -114 125 -115 7 0 16 -6 20 -13 12 -19 114
-82 138 -84 36 -5 50 -8 65 -18 8 -6 23 -10 32 -10 23 0 27 -15 7 -28 -13 -8
-24 -4 -49 16 -17 15 -37 27 -43 27 -13 0 -8 -4 46 -44 35 -26 39 -27 61 -12
23 15 24 14 22 -14 -3 -35 -1 -38 42 -69 30 -21 48 -28 76 -30 4 -1 6 -7 4
-13 -2 -7 15 -31 39 -52 29 -26 41 -33 37 -20 -6 16 -3 15 19 -5 l27 -24 0 63
0 63 -23 -24 c-13 -13 -22 -27 -20 -31 4 -8 -1 -10 -29 -12 -7 -1 -13 6 -13
15 0 24 -62 89 -85 89 -15 0 -20 7 -20 26 0 17 -6 28 -20 31 -37 10 -9 22 48
21 46 -1 61 -6 79 -25 12 -12 31 -23 43 -23 11 0 21 -6 22 -12 0 -7 2 -17 3
-23 2 -5 3 -14 4 -20 1 -5 6 -2 12 8 8 13 7 22 -1 33 -7 8 -8 14 -2 14 5 0 13
8 16 18 3 9 13 28 21 41 9 17 11 30 4 42 -5 10 -9 26 -9 37 0 22 -20 30 -100
39 -30 3 -58 10 -61 15 -3 5 -14 6 -25 2 -13 -4 -15 -3 -6 3 13 10 1 18 -168
124 -52 32 -77 50 -104 74 -6 6 -29 24 -51 40 l-40 29 35 -36z m159 -136 c-1
-16 -2 -16 -6 0 -2 10 -10 15 -19 11 -9 -3 -14 1 -14 11 0 14 4 15 20 6 11 -6
19 -18 19 -28z m-209 -62 c0 -5 -2 -10 -4 -10 -3 0 -8 5 -11 10 -3 6 -1 10 4
10 6 0 11 -4 11 -10z m540 -180 c0 -5 -9 -10 -21 -10 -11 0 -30 -5 -41 -11
-16 -9 -19 -8 -16 2 7 21 78 38 78 19z m-202 -53 c2 -10 -3 -17 -12 -17 -10 0
-16 9 -16 21 0 24 23 21 28 -4z"/>
<path d="M1138 3723 c-9 -2 -18 -14 -20 -26 -4 -29 16 -138 30 -163 11 -18 11
-18 12 2 0 12 -7 38 -16 59 -20 49 -16 111 9 109 9 -1 17 2 17 7 0 11 -12 16
-32 12z"/>
<path d="M1170 3680 c0 -15 21 -23 32 -12 6 6 2 11 -11 15 -12 3 -21 1 -21 -3z"/>
<path d="M921 3573 c6 -7 21 -13 32 -13 16 0 18 3 9 12 -6 6 -21 12 -32 13
-15 1 -17 -1 -9 -12z"/>
<path d="M1110 3546 c0 -2 7 -9 15 -16 13 -11 14 -10 9 4 -5 14 -24 23 -24 12z"/>
<path d="M980 3526 c0 -8 14 -19 32 -25 l32 -11 -24 25 c-26 28 -40 32 -40 11z"/>
<path d="M1140 3496 c0 -8 4 -17 9 -20 8 -5 17 -43 24 -101 1 -11 8 -24 15
-30 6 -5 14 -29 16 -53 4 -36 2 -42 -11 -38 -11 5 -13 2 -9 -10 3 -8 6 -18 6
-20 0 -3 4 -3 8 0 5 3 9 -9 10 -26 1 -25 -2 -29 -9 -18 -8 11 -8 8 -3 -10 4
-14 8 -36 10 -50 9 -80 16 -109 31 -114 12 -5 14 -1 10 14 -4 18 -2 20 16 14
12 -3 32 -16 44 -27 13 -11 25 -18 28 -15 8 7 -44 48 -60 48 -7 0 -18 6 -24
14 -15 17 -20 106 -7 106 5 0 -1 11 -14 25 -19 21 -21 25 -7 25 18 0 23 20 8
35 -5 6 -12 21 -16 34 -6 19 -4 23 8 18 14 -5 13 -1 -2 27 -24 42 -43 126 -28
126 5 0 3 8 -6 18 -10 10 -17 24 -17 30 0 7 -7 12 -15 12 -8 0 -15 -6 -15 -14z"/>
<path d="M820 3480 c0 -5 5 -10 11 -10 5 0 7 5 4 10 -3 6 -8 10 -11 10 -2 0
-4 -4 -4 -10z"/>
<path d="M912 3460 c25 -34 30 -37 21 -12 -8 23 -24 42 -35 42 -5 0 1 -13 14
-30z"/>
<path d="M1222 3481 c-11 -7 -11 -9 2 -14 10 -4 16 -1 16 8 0 17 -1 17 -18 6z"/>
<path d="M746 3472 c-2 -4 4 -8 15 -8 10 0 19 4 19 8 0 4 -6 8 -14 8 -8 0 -17
-4 -20 -8z"/>
<path d="M865 3470 c3 -5 8 -10 11 -10 2 0 4 5 4 10 0 6 -5 10 -11 10 -5 0 -7
-4 -4 -10z"/>
<path d="M1255 3450 c3 -5 11 -10 16 -10 6 0 7 5 4 10 -3 6 -11 10 -16 10 -6
0 -7 -4 -4 -10z"/>
<path d="M799 3421 c13 -12 28 -21 34 -21 12 0 11 0 -28 24 l-30 17 24 -20z"/>
<path d="M1435 3380 c-20 -9 -20 -9 1 -9 11 -1 26 -7 33 -13 11 -10 14 -10 18
-1 3 10 8 9 20 -2 8 -8 21 -15 30 -15 13 0 13 3 3 15 -7 8 -16 13 -20 10 -5
-3 -10 -1 -12 3 -5 14 -51 21 -73 12z"/>
<path d="M1171 3314 c0 -11 3 -14 6 -6 3 7 2 16 -1 19 -3 4 -6 -2 -5 -13z"/>
<path d="M523 3290 c2 -20 -3 -25 -19 -24 -16 0 -20 -4 -16 -18 2 -10 7 -18
11 -18 11 0 51 57 51 72 0 10 -2 10 -9 -1 -7 -11 -10 -11 -15 0 -3 8 -4 3 -3
-11z"/>
<path d="M826 3303 c-6 -7 25 -63 35 -63 4 0 12 -13 18 -30 7 -22 7 -30 -2
-30 -7 0 -4 -7 6 -14 11 -9 25 -44 35 -88 13 -54 22 -73 34 -73 31 0 58 -35
53 -69 -2 -17 -4 -63 -4 -103 -1 -50 -6 -76 -16 -87 -19 -19 -19 -26 0 -26 8
0 17 -10 19 -22 3 -13 7 -35 10 -50 4 -16 1 -28 -7 -31 -9 -4 -9 -6 0 -6 7 -1
17 -19 23 -40 5 -21 17 -42 25 -45 12 -4 14 4 11 51 -3 45 -9 60 -28 74 -12
10 -18 19 -11 19 6 0 18 -7 27 -15 20 -20 26 -19 26 5 0 11 -7 20 -16 20 -8 0
-12 5 -9 10 4 6 11 7 17 4 11 -7 8 20 -7 61 -7 20 -6 20 9 1 27 -34 18 3 -10
40 -22 29 -24 36 -13 50 11 13 10 17 -4 25 -17 10 -23 49 -10 62 3 4 22 -12
42 -35 32 -37 36 -48 36 -100 0 -32 -3 -58 -6 -58 -8 0 6 -68 15 -77 3 -4 6 6
6 21 0 14 7 29 15 32 11 5 12 11 4 25 -5 11 -7 28 -4 39 11 36 8 158 -5 190
-18 43 -31 19 -20 -38 6 -33 4 -42 -6 -42 -8 0 -13 5 -12 12 2 7 -4 12 -12 13
-8 0 -15 9 -15 20 0 11 -8 23 -19 28 -10 4 -16 13 -13 20 3 8 1 20 -3 27 -5 7
-3 21 3 32 10 15 9 21 -3 29 -12 8 -10 9 10 7 14 -1 26 2 27 7 0 6 -3 9 -7 8
-5 -1 -6 10 -4 25 5 39 -16 125 -35 139 -9 7 -28 13 -43 13 -24 0 -26 -3 -19
-27 5 -17 15 -29 27 -30 17 -2 17 -1 1 3 -24 7 -17 39 8 39 15 0 20 -7 21 -30
0 -16 4 -39 9 -49 7 -17 5 -18 -19 -12 -15 4 -38 18 -50 31 -17 18 -26 21 -34
13 -6 -6 -19 -7 -29 -4 -17 7 -17 8 2 22 11 8 25 12 31 10 7 -3 11 3 9 12 -1
12 -12 17 -36 17 -19 0 -33 5 -32 11 2 13 -42 36 -51 27z m94 -56 c-14 -6 -28
-16 -32 -22 -5 -6 -8 -3 -8 7 0 9 10 18 23 21 38 7 43 6 17 -6z m50 -71 c0 -8
-6 -17 -12 -20 -7 -3 -1 -5 14 -3 36 5 47 -3 48 -38 2 -36 -10 -118 -17 -125
-2 -3 -13 6 -24 19 -10 13 -19 20 -19 15 0 -4 -5 -3 -11 3 -6 6 -12 29 -14 51
-1 21 -5 44 -9 50 -10 16 11 62 29 62 8 0 15 -6 15 -14z"/>
<path d="M1785 3300 c-3 -6 1 -7 9 -4 18 7 21 14 7 14 -6 0 -13 -4 -16 -10z"/>
<path d="M353 3278 c-15 -20 -25 -38 -20 -38 3 0 12 11 21 25 17 26 16 35 -1
13z"/>
<path d="M1615 3230 c3 -5 8 -10 11 -10 2 0 4 5 4 10 0 6 -5 10 -11 10 -5 0
-7 -4 -4 -10z"/>
<path d="M1548 3223 c6 -2 18 -2 25 0 6 3 1 5 -13 5 -14 0 -19 -2 -12 -5z"/>
<path d="M851 3204 c0 -11 3 -14 6 -6 3 7 2 16 -1 19 -3 4 -6 -2 -5 -13z"/>
<path d="M1430 3209 l-45 -7 55 1 c55 2 80 -6 80 -24 0 -5 -8 -4 -19 2 -24 16
-51 5 -51 -21 0 -17 -4 -19 -27 -14 -36 9 -42 14 -15 14 29 0 28 15 0 17 -13
0 -44 3 -71 5 -26 1 -47 0 -47 -4 0 -5 8 -8 18 -8 10 0 35 -9 56 -20 22 -10
42 -17 46 -15 4 3 19 -6 34 -20 20 -19 33 -23 56 -18 25 5 30 2 30 -15 0 -21
42 -40 48 -22 2 6 13 10 23 10 19 0 19 1 4 23 -8 12 -21 22 -28 22 -6 0 -13 9
-15 19 -2 10 -9 25 -16 33 -30 38 -47 53 -58 51 -7 0 -33 -4 -58 -9z m120 -77
c0 -10 10 -23 22 -31 19 -12 20 -14 5 -23 -20 -11 -37 -3 -37 17 0 9 -14 15
-42 17 -23 2 -43 9 -46 16 -3 11 -1 11 17 1 17 -11 23 -11 33 0 11 12 10 13
-4 8 -24 -9 -44 19 -22 31 22 12 74 -13 74 -36z"/>
<path d="M1650 3210 c0 -5 10 -10 23 -10 18 0 19 2 7 10 -19 13 -30 13 -30 0z"/>
<path d="M420 3195 c0 -9 6 -12 15 -9 8 4 15 7 15 9 0 2 -7 5 -15 9 -9 3 -15
0 -15 -9z"/>
<path d="M681 3188 c-2 -27 10 -48 27 -48 14 0 14 1 0 13 -9 6 -18 21 -21 32
-3 15 -5 16 -6 3z"/>
<path d="M2280 3187 c0 -9 6 -17 12 -17 7 0 2 -7 -10 -16 -12 -8 -22 -20 -22
-26 0 -6 3 -8 7 -5 3 4 12 2 20 -5 7 -6 16 -8 20 -4 3 3 1 6 -5 6 -16 0 -15
27 0 32 8 3 7 11 -5 28 -13 19 -17 21 -17 7z"/>
<path d="M1712 3136 c24 -40 62 -63 73 -45 4 5 -7 12 -24 15 -17 4 -29 9 -27
13 2 3 -8 17 -21 31 l-25 25 24 -39z"/>
<path d="M1952 3145 c0 -16 2 -22 5 -12 2 9 2 23 0 30 -3 6 -5 -1 -5 -18z"/>
<path d="M840 3154 c1 -12 39 -61 40 -51 0 5 -9 20 -20 34 -11 14 -20 22 -20
17z"/>
<path d="M1776 3145 c4 -8 15 -20 26 -26 17 -9 19 -8 16 13 -2 15 -11 24 -25
26 -18 3 -21 0 -17 -13z"/>
<path d="M760 3140 c-18 -12 -2 -12 25 0 13 6 15 9 5 9 -8 0 -22 -4 -30 -9z"/>
<path d="M1110 3123 c0 -12 38 -48 45 -41 3 2 -6 15 -20 28 -14 13 -25 19 -25
13z"/>
<path d="M2490 3122 c0 -12 19 -26 26 -19 2 2 -2 10 -11 17 -9 8 -15 8 -15 2z"/>
<path d="M760 3105 c0 -9 4 -14 9 -10 6 3 14 -2 19 -11 6 -11 11 -13 16 -5 4
6 2 11 -3 11 -6 0 -10 5 -8 12 1 6 -6 14 -15 16 -12 2 -18 -3 -18 -13z"/>
<path d="M2203 3097 c-2 -14 2 -15 17 -7 29 16 32 28 7 26 -14 0 -24 -8 -24
-19z"/>
<path d="M2548 3104 c16 -30 39 -47 47 -34 3 5 2 10 -4 10 -6 0 -20 10 -32 23
-20 20 -21 21 -11 1z"/>
<path d="M1906 3095 c4 -8 8 -15 10 -15 2 0 4 7 4 15 0 8 -4 15 -10 15 -5 0
-7 -7 -4 -15z"/>
<path d="M2274 3102 c4 -7 1 -12 -8 -12 -19 0 -20 -8 -1 -40 8 -14 15 -41 16
-60 l2 -35 6 40 c3 22 2 43 -4 47 -9 7 -3 10 34 20 10 3 3 12 -19 28 -19 13
-30 19 -26 12z m13 -28 c-3 -3 -12 -4 -19 -1 -8 3 -5 6 6 6 11 1 17 -2 13 -5z"/>
<path d="M2335 3100 c27 -12 43 -12 25 0 -8 5 -22 9 -30 9 -10 0 -8 -3 5 -9z"/>
<path d="M622 3080 c-28 -14 -31 -18 -19 -28 19 -16 44 -6 51 21 3 12 4 22 3
22 -1 1 -17 -6 -35 -15z m18 -14 c0 -3 -4 -8 -10 -11 -5 -3 -10 -1 -10 4 0 6
5 11 10 11 6 0 10 -2 10 -4z"/>
<path d="M2165 3090 c-3 -6 1 -7 9 -4 18 7 21 14 7 14 -6 0 -13 -4 -16 -10z"/>
<path d="M873 3076 c6 -14 3 -17 -9 -12 -10 4 -14 1 -11 -6 2 -7 11 -13 20
-13 9 0 23 -9 31 -20 20 -26 20 -16 0 23 -17 35 -42 57 -31 28z"/>
<path d="M2516 3069 c20 -23 54 -28 35 -5 -6 8 -21 16 -32 19 -20 5 -20 5 -3
-14z"/>
<path d="M1119 3075 c-10 -9 3 -64 15 -68 8 -3 11 5 10 25 -2 30 -16 53 -25
43z"/>
<path d="M2118 3062 c9 -10 19 -17 21 -16 6 5 -20 34 -30 34 -5 0 -1 -8 9 -18z"/>
<path d="M2618 3073 c7 -3 16 -2 19 1 4 3 -2 6 -13 5 -11 0 -14 -3 -6 -6z"/>
<path d="M2016 3056 c21 -15 30 -14 19 3 -3 6 -14 11 -23 11 -13 0 -13 -2 4
-14z"/>
<path d="M675 3050 c-3 -5 -1 -10 4 -10 6 0 11 5 11 10 0 6 -2 10 -4 10 -3 0
-8 -4 -11 -10z"/>
<path d="M800 3035 c-7 -14 -18 -25 -24 -25 -12 -1 -56 -35 -56 -44 0 -3 10
-6 23 -6 16 0 18 3 8 9 -11 7 -10 11 7 20 26 14 45 14 37 1 -4 -7 3 -9 18 -6
31 5 66 -25 74 -65 5 -28 23 -41 23 -18 0 8 5 8 15 -1 12 -10 15 -9 15 5 0 9
-9 19 -19 22 -14 3 -23 20 -31 54 -7 27 -16 49 -20 49 -14 0 -19 -27 -7 -41
10 -11 9 -11 -4 -1 -9 7 -19 26 -23 42 -7 37 -18 38 -36 5z"/>
<path d="M1621 3047 c-9 -11 -3 -17 29 -30 l40 -16 -27 30 c-33 34 -28 32 -42
16z"/>
<path d="M1881 3044 c0 -11 3 -14 6 -6 3 7 2 16 -1 19 -3 4 -6 -2 -5 -13z"/>
<path d="M2370 3051 c0 -5 7 -12 16 -15 8 -3 12 -11 8 -17 -3 -6 -2 -14 3 -18
5 -3 19 -21 32 -38 21 -31 51 -45 51 -24 0 22 -13 39 -25 35 -7 -3 -16 -1 -19
4 -10 17 5 42 25 42 20 0 26 15 9 25 -5 3 -10 1 -10 -4 0 -16 -26 -13 -60 4
-17 9 -30 11 -30 6z"/>
<path d="M529 3034 c-12 -14 -11 -16 5 -13 11 2 21 10 24 17 5 17 -13 15 -29
-4z"/>
<path d="M761 3034 c0 -11 3 -14 6 -6 3 7 2 16 -1 19 -3 4 -6 -2 -5 -13z"/>
<path d="M627 3019 c7 -7 15 -10 18 -7 3 3 -2 9 -12 12 -14 6 -15 5 -6 -5z"/>
<path d="M2526 3022 c-7 -12 34 -33 59 -31 40 4 52 -1 65 -28 8 -16 14 -31 14
-34 1 -3 9 -13 19 -23 9 -10 17 -26 17 -37 0 -11 7 -19 16 -19 15 0 15 2 0 25
-9 13 -16 29 -16 36 0 6 -16 34 -36 61 -36 49 -42 51 -85 34 -10 -4 -23 0 -32
9 -9 8 -18 11 -21 7z"/>
<path d="M1926 3005 c4 -8 8 -15 10 -15 2 0 4 7 4 15 0 8 -4 15 -10 15 -5 0
-7 -7 -4 -15z"/>
<path d="M2665 3010 c3 -5 8 -10 11 -10 2 0 4 5 4 10 0 6 -5 10 -11 10 -5 0
-7 -4 -4 -10z"/>
<path d="M434 2983 c-17 -16 -23 -23 -15 -16 9 6 32 18 51 26 25 11 29 16 15
16 -12 1 -34 -11 -51 -26z"/>
<path d="M1967 2980 c-14 -16 -14 -19 0 -24 8 -3 13 -12 11 -18 -3 -7 5 -21
16 -31 l21 -18 -22 10 c-30 15 -43 14 -37 -4 4 -10 20 -15 45 -15 35 0 39 2
39 26 0 15 -13 41 -29 59 -27 31 -29 32 -44 15z m48 -40 c3 -6 -1 -7 -9 -4
-18 7 -21 14 -7 14 6 0 13 -4 16 -10z"/>
<path d="M1224 2970 c-7 -7 1 -23 26 -50 20 -22 41 -40 46 -40 5 0 1 7 -8 14
-10 7 -25 29 -33 50 -17 40 -17 40 -31 26z"/>
<path d="M790 2957 c0 -5 -10 -17 -22 -28 -13 -10 -17 -18 -11 -19 7 0 27 13
45 29 30 27 31 30 11 28 -13 -1 -23 -5 -23 -10z"/>
<path d="M1355 2960 c-13 -5 -15 -9 -6 -14 6 -4 18 -6 25 -3 7 3 19 1 26 -3
11 -7 11 -12 2 -23 -10 -11 -9 -17 3 -27 8 -7 22 -28 31 -46 14 -29 19 -32 45
-27 31 6 40 -12 18 -34 -8 -8 -3 -23 19 -55 27 -40 34 -44 62 -40 27 4 31 2
28 -14 -3 -15 -12 -19 -38 -17 -29 2 -31 1 -14 -7 12 -5 28 -18 36 -29 8 -12
18 -18 21 -14 4 3 7 0 7 -9 0 -8 9 -23 21 -34 12 -10 28 -32 36 -49 9 -16 19
-32 22 -35 4 -3 17 -20 30 -38 18 -25 26 -30 32 -21 7 11 11 11 21 1 10 -10
10 -15 -2 -22 -26 -16 -36 -11 -64 30 -14 22 -32 40 -40 40 -8 0 -24 11 -37
24 -19 20 -25 22 -37 10 -11 -12 -11 -16 2 -29 8 -8 17 -15 21 -15 3 0 16 -11
29 -25 13 -14 28 -25 35 -25 6 0 11 -4 11 -9 0 -12 56 -31 65 -23 4 4 4 -7 1
-23 -3 -17 -3 -24 0 -17 9 18 23 15 47 -14 12 -14 31 -26 42 -28 11 -2 20 -10
20 -19 0 -8 7 -23 16 -34 38 -44 60 -83 45 -77 -10 4 -16 1 -16 -9 0 -23 11
-47 20 -42 4 2 16 -2 26 -10 18 -14 17 -14 -10 -15 -21 0 -27 -4 -23 -15 4 -8
2 -17 -2 -19 -11 -7 -1 -56 11 -56 5 0 6 10 2 23 -7 22 -6 22 14 4 19 -18 20
-53 1 -41 -13 8 -14 -24 -4 -73 3 -13 11 -23 17 -23 9 0 9 3 0 12 -18 18 -15
28 8 28 11 0 20 -5 20 -11 0 -6 7 -9 15 -5 8 3 15 1 15 -5 0 -6 5 -7 10 -4 6
4 8 11 5 16 -4 5 -2 9 4 9 5 0 11 -6 14 -12 2 -7 8 -10 12 -6 10 10 -4 28 -22
28 -22 0 -59 43 -41 49 7 2 19 11 27 18 12 12 12 14 0 13 -26 -4 -39 0 -39 11
0 6 9 9 20 6 11 -3 20 -1 20 4 0 6 6 9 13 8 24 -3 37 1 37 12 0 8 -14 10 -39
6 -29 -4 -41 -1 -45 10 -9 23 -7 53 4 53 5 0 7 7 3 16 -5 14 -2 16 23 10 27
-6 28 -5 10 9 -11 8 -23 15 -27 15 -9 0 -31 61 -24 68 2 3 10 0 17 -5 7 -6 27
-13 44 -16 29 -6 31 -4 26 16 -3 12 -7 16 -10 9 -6 -20 -33 -14 -58 14 -13 14
-24 28 -25 32 -6 61 -5 101 2 96 5 -3 9 2 9 11 0 9 -4 14 -9 11 -20 -12 -31
26 -34 110 l-2 88 39 11 c24 7 35 14 28 19 -7 4 -12 17 -12 30 0 13 -6 23 -15
23 -17 0 -20 -13 -5 -22 15 -9 1 -27 -17 -21 -8 3 -11 1 -8 -4 3 -6 1 -10 -4
-10 -6 0 -11 23 -12 53 0 45 -16 114 -18 79 -1 -10 -5 -10 -21 0 -29 18 -35 3
-11 -28 23 -30 27 -50 9 -56 -8 -3 -8 -9 -2 -19 13 -20 13 -142 0 -151 -7 -5
-6 -8 2 -8 9 0 13 -13 11 -42 -1 -24 2 -52 6 -63 14 -40 15 -47 4 -67 -8 -15
-8 -19 0 -14 7 4 11 -1 11 -13 0 -12 -5 -21 -12 -21 -9 0 -9 -3 0 -12 16 -16
16 -61 0 -55 -7 2 -13 13 -13 24 0 11 -5 26 -10 34 -6 8 -17 26 -25 42 -8 15
-22 27 -33 27 -15 0 -18 5 -14 21 6 23 -24 92 -45 106 -7 4 -20 8 -28 8 -16 0
-27 35 -11 35 6 0 2 16 -9 35 -23 40 -26 55 -8 37 20 -20 31 -14 25 14 -4 22
-2 25 16 20 25 -6 11 8 -28 28 -19 10 -24 16 -12 16 9 0 17 7 17 15 0 8 5 15
11 15 5 0 7 4 4 10 -3 5 2 9 12 7 10 -1 18 3 18 8 0 6 -3 9 -7 7 -5 -1 -8 3
-8 9 0 13 -41 59 -53 59 -5 0 -6 -4 -2 -9 3 -5 1 -12 -5 -16 -7 -4 -7 -12 0
-25 13 -25 13 -63 -2 -78 -8 -8 -8 -15 2 -27 7 -8 11 -15 9 -16 -43 -7 -69 -6
-75 3 -4 6 -1 16 8 22 13 8 10 16 -19 55 -46 60 -43 57 -53 42 -10 -17 -40 -7
-40 14 0 8 7 15 16 15 9 0 13 5 10 13 -3 6 -9 20 -12 30 -4 9 -10 17 -15 17
-5 0 -9 6 -9 14 0 19 -108 102 -141 108 -14 2 -34 2 -44 -2z m71 -57 c-11 -11
-17 4 -9 23 7 18 8 18 11 1 2 -10 1 -21 -2 -24z m67 -18 c-4 -15 -36 -12 -41
3 -3 9 3 13 19 10 13 -1 23 -7 22 -13z m37 -53 c0 -12 -3 -13 -12 -4 -7 7 -26
13 -42 13 -21 1 -25 3 -11 6 11 3 24 9 29 14 12 11 36 -8 36 -29z m10 -66 c0
-11 -19 -15 -25 -6 -3 5 1 10 9 10 9 0 16 -2 16 -4z m100 -88 c0 -5 -9 1 -21
13 -14 14 -28 19 -44 15 -15 -4 -25 -1 -28 8 -4 11 3 16 26 18 25 2 36 -3 49
-22 10 -14 18 -28 18 -32z m-7 -42 c4 -10 0 -12 -15 -8 -15 4 -17 7 -6 13 17
11 15 11 21 -5z m67 -100 c-13 -13 -35 7 -25 24 5 8 11 8 21 -1 10 -8 12 -15
4 -23z"/>
<path d="M2578 2963 c7 -3 16 -2 19 1 4 3 -2 6 -13 5 -11 0 -14 -3 -6 -6z"/>
<path d="M2370 2951 c0 -6 4 -13 10 -16 6 -3 7 1 4 9 -7 18 -14 21 -14 7z"/>
<path d="M3211 2943 c-1 -6 -4 -20 -7 -30 -5 -17 -5 -17 6 0 6 10 9 23 6 30
-3 9 -5 9 -5 0z"/>
<path d="M850 2916 c0 -9 5 -16 10 -16 6 0 10 4 10 9 0 6 -4 13 -10 16 -5 3
-10 -1 -10 -9z"/>
<path d="M1800 2920 c13 -9 13 -10 0 -11 -22 -1 20 -18 45 -18 14 1 16 2 5 6
-8 3 -19 12 -23 19 -4 8 -16 14 -25 14 -15 0 -15 -2 -2 -10z"/>
<path d="M1735 2890 c18 -34 25 -38 25 -12 0 9 -9 23 -20 30 -20 12 -21 12 -5
-18z"/>
<path d="M2746 2904 c-7 -18 18 -64 34 -64 14 0 12 16 -4 29 -8 7 -12 21 -9
31 6 24 -12 27 -21 4z"/>
<path d="M616 2901 c-3 -5 1 -11 9 -14 9 -4 12 -1 8 9 -6 16 -10 17 -17 5z"/>
<path d="M697 2899 c7 -7 15 -10 18 -7 3 3 -2 9 -12 12 -14 6 -15 5 -6 -5z"/>
<path d="M2486 2893 c-6 -15 3 -29 43 -72 7 -8 17 -27 22 -41 8 -21 17 -26 46
-28 21 -2 34 1 29 5 -4 4 -11 9 -14 9 -34 7 -51 24 -77 76 -34 68 -40 75 -49
51z"/>
<path d="M755 2890 c-3 -5 -1 -10 4 -10 6 0 11 5 11 10 0 6 -2 10 -4 10 -3 0
-8 -4 -11 -10z"/>
<path d="M1926 2878 c8 -27 12 -33 19 -27 7 8 -7 49 -17 49 -5 0 -6 -10 -2
-22z"/>
<path d="M2616 2870 c7 -28 12 -35 18 -29 2 2 -2 15 -10 29 l-15 25 7 -25z"/>
<path d="M1590 2869 c0 -5 5 -7 10 -4 6 3 10 8 10 11 0 2 -4 4 -10 4 -5 0 -10
-5 -10 -11z"/>
<path d="M1710 2870 c0 -22 20 -40 45 -39 14 0 15 2 5 6 -8 3 -23 15 -32 27
-13 16 -18 17 -18 6z"/>
<path d="M2052 2871 c-11 -7 -10 -16 7 -50 24 -46 41 -53 41 -16 0 15 -9 29
-22 36 -14 8 -18 14 -10 17 13 4 17 22 5 22 -5 0 -14 -4 -21 -9z"/>
<path d="M610 2860 c0 -5 7 -7 15 -4 8 4 15 8 15 10 0 2 -7 4 -15 4 -8 0 -15
-4 -15 -10z"/>
<path d="M860 2860 c0 -6 5 -8 10 -5 6 3 10 2 10 -2 0 -5 -9 -14 -20 -21 -20
-12 -28 -52 -11 -52 5 0 7 8 4 18 -3 12 4 23 22 32 14 7 24 18 22 24 -5 15
-37 20 -37 6z"/>
<path d="M943 2822 c1 -27 5 -48 9 -46 3 2 8 -2 11 -8 2 -7 8 -10 12 -6 4 4 2
15 -5 23 -7 9 -14 29 -15 46 -4 51 -14 44 -12 -9z"/>
<path d="M1640 2860 c0 -5 5 -10 11 -10 5 0 7 5 4 10 -3 6 -8 10 -11 10 -2 0
-4 -4 -4 -10z"/>
<path d="M3187 2852 c-19 -21 -22 -49 -7 -72 5 -8 10 -13 10 -10 0 3 7 26 15
53 15 50 9 59 -18 29z"/>
<path d="M565 2849 c-11 -17 1 -21 15 -4 8 9 8 15 2 15 -6 0 -14 -5 -17 -11z"/>
<path d="M754 2842 c-11 -18 -7 -52 6 -52 10 0 20 53 11 62 -3 4 -11 0 -17
-10z"/>
<path d="M2395 2836 c8 -11 16 -34 19 -50 3 -16 6 -29 8 -30 2 -1 12 -8 23
-16 19 -14 19 -14 3 6 -10 11 -18 35 -18 52 0 18 -5 32 -11 32 -5 0 -8 4 -5 9
3 5 -3 11 -14 14 -17 4 -18 3 -5 -17z"/>
<path d="M340 2817 c-32 -30 -66 -77 -56 -77 2 0 30 25 61 55 31 30 50 55 43
55 -7 0 -29 -15 -48 -33z"/>
<path d="M2314 2842 c5 -8 0 -12 -14 -12 -12 0 -19 -4 -16 -9 9 -14 55 -19 59
-7 3 7 9 7 20 -3 15 -11 17 -11 17 2 0 8 -8 17 -17 20 -10 2 -27 8 -37 13 -14
5 -17 4 -12 -4z"/>
<path d="M2730 2831 c0 -6 4 -13 10 -16 6 -3 7 1 4 9 -7 18 -14 21 -14 7z"/>
<path d="M2460 2821 c0 -5 5 -13 10 -16 6 -3 10 -2 10 4 0 5 -4 13 -10 16 -5
3 -10 2 -10 -4z"/>
<path d="M2766 2816 c9 -23 33 -28 27 -5 -3 10 -11 19 -19 19 -7 0 -11 -6 -8
-14z"/>
<path d="M895 2810 c-4 -6 -2 -17 4 -23 17 -17 13 -29 -9 -22 -11 3 -20 2 -20
-4 0 -5 -10 -11 -22 -13 -12 -2 -24 -10 -26 -18 -4 -12 -2 -13 9 -4 42 33 97
14 83 -30 -4 -11 -11 -22 -15 -24 -5 -2 -9 -12 -9 -22 0 -23 -37 -34 -44 -11
-2 9 -2 -1 1 -22 4 -30 1 -41 -13 -52 -11 -8 -14 -14 -6 -15 14 0 17 -30 2
-30 -5 0 -10 5 -10 10 0 19 -19 10 -26 -12 -3 -13 -13 -31 -22 -40 -10 -12
-11 -18 -3 -18 6 0 14 7 17 15 3 8 25 17 52 20 26 3 54 10 63 15 21 11 22 -21
1 -36 -13 -10 -13 -14 6 -30 24 -20 14 -34 -26 -34 -13 0 -20 -4 -17 -10 3 -5
-2 -10 -12 -10 -12 -1 -8 -5 12 -14 25 -11 32 -11 41 0 15 19 40 18 48 -2 8
-22 5 -25 -43 -31 -27 -4 -41 -2 -41 6 0 6 -4 11 -10 11 -6 0 -7 -15 -4 -37 5
-33 4 -36 -10 -24 -10 8 -16 9 -16 3 0 -6 5 -14 10 -17 6 -4 8 -11 5 -16 -4
-5 1 -12 9 -15 9 -3 16 -16 16 -28 -1 -20 -1 -20 -14 -3 -13 17 -14 16 -19 -2
-4 -17 -13 -20 -73 -19 -79 1 -204 -18 -251 -38 -17 -8 -38 -14 -47 -14 -9 0
-26 -11 -38 -25 -12 -14 -28 -25 -35 -25 -7 0 -13 -4 -13 -10 0 -5 -10 -19
-22 -31 -15 -14 -17 -18 -6 -13 10 6 36 27 57 47 54 51 191 98 191 66 0 -5 5
-7 11 -3 8 5 8 9 -1 14 -6 4 10 10 36 14 69 9 74 8 74 -15 0 -11 -4 -17 -10
-14 -15 9 -12 -2 6 -19 8 -9 21 -13 27 -9 7 4 19 8 27 8 8 0 15 7 16 15 2 36
5 40 29 40 27 0 48 -31 27 -38 -22 -7 -12 -23 11 -17 21 5 20 5 -3 -10 -14 -9
-17 -14 -7 -11 22 7 47 -3 47 -18 0 -9 -30 -12 -107 -12 -60 1 -133 -5 -163
-11 -82 -19 -196 -80 -237 -127 -40 -47 -57 -76 -46 -76 5 0 17 15 27 34 18
34 86 91 144 120 120 61 395 58 484 -5 30 -22 30 -22 26 -109 -2 -66 -7 -93
-20 -107 -22 -24 -23 -49 -2 -57 8 -3 41 3 72 13 68 23 203 51 243 51 25 0 28
3 26 30 -1 16 -4 30 -7 30 -3 0 -11 9 -18 20 -11 18 -10 20 10 17 12 -1 31
-11 42 -21 24 -24 36 -4 13 22 -9 9 -19 29 -22 45 -8 28 -23 35 -42 16 -13
-13 -43 -5 -43 12 0 7 9 9 26 5 23 -6 25 -4 19 15 -6 18 -4 20 14 14 12 -4 27
-2 34 3 12 9 51 13 42 4 -3 -3 7 -11 21 -18 19 -10 31 -11 46 -3 11 6 22 8 26
5 3 -3 -1 -6 -8 -6 -9 0 -7 -7 6 -22 l19 -23 -22 19 c-15 13 -23 15 -23 6 0
-6 -6 -10 -14 -7 -27 11 -36 -16 -13 -43 12 -16 18 -18 14 -7 -5 12 -1 17 12
17 24 0 33 -11 21 -26 -8 -8 -6 -23 7 -48 15 -32 21 -36 52 -35 20 1 46 4 59
7 l23 7 -35 49 c-23 32 -32 54 -26 61 14 17 7 56 -12 66 -10 5 -18 14 -18 19
0 17 30 11 57 -10 14 -11 29 -18 33 -15 13 8 21 -26 10 -40 -8 -9 -5 -14 12
-19 13 -3 24 -2 26 3 1 4 18 6 37 4 42 -4 45 10 8 34 -16 9 -30 18 -32 19 -1
2 0 7 4 13 6 11 52 -12 67 -33 4 -6 9 -8 12 -5 3 3 -6 29 -19 58 -14 29 -29
66 -32 83 -6 28 -5 30 15 19 28 -15 37 -14 23 3 -6 7 -9 21 -5 30 4 11 1 16
-10 16 -9 0 -16 6 -16 14 0 8 -8 17 -17 19 -13 3 -12 5 5 6 13 0 20 6 17 11
-3 6 1 10 9 10 10 0 16 -9 16 -26 0 -21 3 -24 20 -19 12 4 28 1 36 -6 8 -6 18
-9 22 -5 4 4 -1 12 -11 17 -9 6 -17 17 -17 24 0 8 -7 15 -15 15 -7 0 -18 7
-23 16 -7 13 -27 16 -103 17 -53 0 -98 5 -102 11 -6 8 -10 8 -13 0 -5 -11 -25
-9 -93 12 -16 5 -22 4 -17 -4 11 -19 -14 -24 -39 -8 -16 11 -22 22 -18 33 5
11 3 14 -6 8 -8 -4 -17 -2 -22 6 -4 7 -11 11 -14 7 -6 -6 65 -78 78 -78 4 0 7
-5 7 -11 0 -14 47 -59 54 -52 3 3 8 -6 11 -20 7 -28 65 -62 65 -38 0 5 -8 12
-17 14 -14 4 -12 5 5 6 12 0 22 -3 22 -8 0 -5 3 -17 7 -27 5 -13 3 -15 -7 -9
-8 5 -11 4 -6 -3 4 -7 17 -8 38 -1 41 11 58 -3 39 -33 -12 -20 -11 -24 13 -43
33 -27 33 -32 -4 -31 -16 1 -30 3 -30 6 0 13 -59 40 -74 34 -12 -5 -15 -2 -10
10 4 10 1 16 -7 16 -12 0 -12 2 0 9 11 7 10 12 -5 29 -13 16 -20 18 -25 10 -6
-9 -14 -6 -28 10 -22 26 -31 19 -24 -20 4 -22 30 -41 53 -40 3 0 6 -7 6 -17 0
-15 -7 -17 -46 -13 -25 2 -51 11 -58 21 -7 9 -15 15 -17 14 -12 -7 -33 -2 -51
12 -16 13 -17 16 -4 24 12 8 12 13 2 23 -9 9 -12 8 -12 -6 0 -14 -5 -17 -21
-13 -14 4 -19 2 -16 -7 3 -7 -3 -19 -14 -27 -10 -7 -19 -24 -19 -36 0 -21 -10
-28 -32 -24 -11 1 -10 -7 3 -31 9 -16 8 -19 -3 -16 -18 6 -24 108 -6 108 8 1
7 6 -5 14 -10 8 -14 17 -8 20 5 3 17 -2 27 -11 17 -17 18 -17 11 1 -5 12 -3
22 4 27 16 9 4 39 -16 39 -10 0 -13 -5 -9 -12 4 -7 -3 -4 -16 7 l-23 20 5 -27
c3 -16 1 -28 -3 -28 -5 0 -9 4 -9 8 0 5 -9 18 -19 29 -22 23 -51 87 -51 112 0
9 -7 29 -15 45 -8 16 -15 54 -15 88 0 57 -1 59 -30 70 -36 12 -45 27 -55 88
-4 25 -13 52 -19 60 -7 8 -20 44 -30 80 -20 78 -30 97 -41 80z m45 -241 c0
-22 -25 -26 -33 -5 -6 16 12 38 25 30 4 -3 8 -14 8 -25z m40 -66 c-8 -3 -18
-10 -21 -16 -8 -12 -31 1 -24 14 4 5 18 9 33 8 16 0 21 -3 12 -6z m60 -29 c0
-8 -4 -12 -10 -9 -5 3 -10 10 -10 16 0 5 5 9 10 9 6 0 10 -7 10 -16z m-15 -54
c3 -25 2 -38 -1 -30 -4 8 -10 17 -14 20 -9 6 -13 26 -11 55 2 33 20 3 26 -45z
m8 -67 c-7 -2 -19 -2 -25 0 -7 3 -2 5 12 5 14 0 19 -2 13 -5z m-53 -33 c0 -11
-6 -20 -14 -20 -12 0 -14 14 -7 38 1 1 6 2 11 2 6 0 10 -9 10 -20z m-64 -17
c4 -10 6 -21 6 -25 -1 -5 7 -8 18 -8 10 0 24 -9 30 -20 10 -18 8 -19 -15 -10
-28 11 -32 3 -10 -26 18 -24 19 -34 1 -34 -16 0 -21 13 -32 73 -6 36 -17 47
-29 27 -3 -5 -11 -10 -17 -10 -7 0 -6 6 2 15 7 8 9 15 4 15 -10 0 17 20 27 20
4 0 10 -8 15 -17z m89 -2 c3 -5 1 -12 -5 -16 -5 -3 -10 1 -10 9 0 18 6 21 15
7z m55 -1 c0 -5 -4 -10 -10 -10 -5 0 -10 5 -10 10 0 6 5 10 10 10 6 0 10 -4
10 -10z m514 -41 c4 -4 -2 -10 -15 -14 -14 -5 -25 -3 -27 4 -2 6 -18 11 -37
11 -31 0 -61 20 -49 32 6 7 115 -21 128 -33z m-554 -44 c9 -10 9 -15 1 -15 -6
0 -11 -10 -11 -22 0 -17 -3 -19 -12 -10 -8 8 -8 15 0 25 9 10 9 16 0 25 -8 8
-8 12 -1 12 6 0 16 -7 23 -15z m624 7 c2 -4 1 -14 -4 -22 -7 -11 -11 -11 -24
-1 -9 8 -16 17 -16 22 0 11 37 12 44 1z m-900 -47 c-4 -8 -8 -15 -10 -15 -2 0
-4 7 -4 15 0 8 4 15 10 15 5 0 7 -7 4 -15z m1003 9 c-3 -3 -12 -4 -19 -1 -8 3
-5 6 6 6 11 1 17 -2 13 -5z m-82 -104 c3 -5 2 -10 -4 -10 -5 0 -13 5 -16 10
-3 6 -2 10 4 10 5 0 13 -4 16 -10z m55 -5 c0 -9 -6 -12 -15 -9 -8 4 -15 10
-15 15 0 5 7 9 15 9 8 0 15 -7 15 -15z m-161 -80 c3 -17 2 -17 -13 -3 -19 20
-21 31 -3 26 6 -3 14 -13 16 -23z m21 -110 c0 -17 -2 -18 -24 -9 -23 9 -20 24
4 24 11 0 20 -7 20 -15z"/>
<path d="M1227 2799 c4 -13 8 -18 11 -10 2 7 -1 18 -6 23 -8 8 -9 4 -5 -13z"/>
<path d="M1792 2812 c-10 -7 -8 -12 6 -26 19 -16 19 -16 15 9 -3 14 -6 25 -7
25 0 0 -7 -4 -14 -8z"/>
<path d="M1940 2811 c0 -6 5 -13 10 -16 6 -3 10 -17 10 -31 0 -14 4 -23 9 -20
11 7 -8 76 -21 76 -4 0 -8 -4 -8 -9z"/>
<path d="M2498 2803 c7 -3 16 -2 19 1 4 3 -2 6 -13 5 -11 0 -14 -3 -6 -6z"/>
<path d="M722 2791 c-7 -4 -15 -20 -16 -35 -3 -19 0 -24 9 -16 6 5 14 8 16 6
2 -2 4 9 5 25 1 16 1 29 0 29 -1 0 -7 -4 -14 -9z"/>
<path d="M3347 2776 c-10 -14 -13 -26 -8 -26 13 0 33 28 29 41 -2 6 -12 0 -21
-15z"/>
<path d="M663 2773 c-7 -3 -13 -13 -13 -24 0 -17 -5 -18 -37 -14 -46 6 -99
-29 -83 -55 8 -13 10 -13 10 1 0 19 24 42 47 45 13 2 12 0 -1 -15 -21 -23 -20
-41 2 -57 16 -12 15 -13 -5 -14 -12 0 -24 -4 -27 -8 -3 -5 9 -8 26 -7 41 3 84
53 93 107 8 43 6 47 -12 41z m-13 -65 c0 -4 -4 -8 -9 -8 -6 0 -12 4 -15 8 -3
5 1 9 9 9 8 0 15 -4 15 -9z m-30 -13 c13 -16 6 -35 -15 -35 -15 0 -28 27 -19
41 8 13 20 11 34 -6z"/>
<path d="M757 2740 c-3 -11 -1 -20 4 -20 5 0 9 9 9 20 0 11 -2 20 -4 20 -2 0
-6 -9 -9 -20z"/>
<path d="M2246 2745 c4 -8 8 -15 10 -15 2 0 4 7 4 15 0 8 -4 15 -10 15 -5 0
-7 -7 -4 -15z"/>
<path d="M1249 2739 c-12 -7 -12 -9 1 -9 12 0 12 -2 2 -9 -11 -7 -11 -11 2
-24 9 -8 16 -25 16 -37 0 -34 54 -122 67 -109 13 13 6 38 -40 131 -26 52 -36
65 -48 57z m45 -95 c3 -8 2 -12 -4 -9 -6 3 -10 10 -10 16 0 14 7 11 14 -7z"/>
<path d="M2098 2725 c2 -14 6 -25 8 -25 2 0 4 11 4 25 0 14 -4 25 -9 25 -4 0
-6 -11 -3 -25z"/>
<path d="M2287 2732 c1 -8 3 -16 3 -18 0 -2 6 -4 13 -4 7 0 18 -9 25 -20 7
-11 22 -20 35 -19 l22 0 -22 9 c-12 5 -28 18 -35 30 -7 11 -18 20 -25 20 -6 0
-13 3 -16 8 -2 4 -2 1 0 -6z"/>
<path d="M1986 2732 c-4 -7 -12 -10 -17 -7 -5 4 -9 -1 -9 -11 0 -13 3 -14 13
-5 10 8 19 7 33 -4 23 -17 38 -19 28 -3 -5 8 -2 9 9 5 12 -4 17 -1 17 10 0 12
-7 14 -29 10 -18 -4 -31 -2 -33 5 -3 9 -6 9 -12 0z"/>
<path d="M371 2704 c0 -11 3 -14 6 -6 3 7 2 16 -1 19 -3 4 -6 -2 -5 -13z"/>
<path d="M1394 2694 c-18 -15 -18 -15 3 -11 14 3 20 1 17 -7 -3 -7 2 -13 11
-13 18 0 19 7 1 29 -12 16 -15 16 -32 2z"/>
<path d="M3352 2685 c0 -16 2 -22 5 -12 2 9 2 23 0 30 -3 6 -5 -1 -5 -18z"/>
<path d="M816 2669 c-8 -42 0 -50 9 -9 4 17 5 34 2 36 -2 3 -7 -10 -11 -27z"/>
<path d="M1155 2690 c3 -5 12 -7 20 -3 21 7 19 13 -6 13 -11 0 -18 -4 -14 -10z"/>
<path d="M772 2655 c-12 -19 -18 -35 -13 -35 11 0 43 49 39 60 -2 5 -13 -6
-26 -25z"/>
<path d="M2040 2668 c0 -5 4 -7 9 -4 18 11 39 -6 45 -35 16 -84 27 -89 24 -11
l-3 61 -37 -1 c-21 0 -38 -5 -38 -10z"/>
<path d="M1768 2663 c7 -3 16 -2 19 1 4 3 -2 6 -13 5 -11 0 -14 -3 -6 -6z"/>
<path d="M2573 2646 c4 -11 57 -17 57 -6 0 4 -14 10 -30 12 -18 3 -29 0 -27
-6z"/>
<path d="M490 2638 c0 -4 6 -8 14 -8 8 0 17 4 20 8 2 4 -4 8 -15 8 -10 0 -19
-4 -19 -8z"/>
<path d="M1440 2636 c0 -9 4 -16 8 -16 8 0 49 -66 51 -82 1 -4 11 -25 24 -45
12 -21 21 -44 19 -50 -2 -7 2 -13 8 -13 6 0 9 -4 6 -8 -3 -5 1 -9 8 -9 9 0 -2
31 -33 91 -25 50 -49 92 -53 94 -5 2 -8 9 -8 17 0 7 -7 18 -15 25 -12 10 -15
10 -15 -4z"/>
<path d="M2307 2631 c16 -15 27 -18 49 -12 24 7 26 10 12 16 -10 4 -25 5 -33
2 -8 -4 -17 -2 -20 3 -4 6 -11 10 -17 10 -7 0 -2 -9 9 -19z"/>
<path d="M2522 2598 c1 -48 2 -49 5 -13 3 22 9 45 15 52 8 10 6 13 -6 13 -13
0 -16 -10 -14 -52z"/>
<path d="M2645 2640 c3 -5 14 -10 23 -10 15 0 15 2 2 10 -20 13 -33 13 -25 0z"/>
<path d="M296 2625 c4 -8 8 -15 10 -15 2 0 4 7 4 15 0 8 -4 15 -10 15 -5 0 -7
-7 -4 -15z"/>
<path d="M438 2612 c-16 -10 -28 -21 -28 -25 0 -5 14 1 30 13 17 12 30 23 30
26 0 5 0 5 -32 -14z"/>
<path d="M813 2594 c-12 -27 -8 -31 12 -11 7 8 10 19 6 25 -4 6 -11 1 -18 -14z"/>
<path d="M526 2595 c-11 -8 -17 -17 -14 -20 2 -3 13 4 23 15 21 23 18 25 -9 5z"/>
<path d="M756 2603 c5 -5 12 -12 16 -18 4 -6 8 -2 8 8 0 9 -7 17 -17 17 -9 0
-12 -3 -7 -7z"/>
<path d="M1780 2600 c0 -5 5 -10 11 -10 5 0 7 5 4 10 -3 6 -8 10 -11 10 -2 0
-4 -4 -4 -10z"/>
<path d="M1987 2585 l-27 -24 45 2 c49 2 51 4 31 30 -16 21 -15 21 -49 -8z"/>
<path d="M2600 2593 c0 -9 -7 -24 -16 -34 -9 -10 -13 -23 -9 -28 12 -21 22
-11 32 34 6 25 6 45 2 45 -5 0 -9 -8 -9 -17z"/>
<path d="M450 2581 c0 -6 4 -13 10 -16 6 -3 7 1 4 9 -7 18 -14 21 -14 7z"/>
<path d="M2352 2585 c10 -11 48 -14 48 -4 0 5 -12 9 -27 9 -14 0 -24 -2 -21
-5z"/>
<path d="M2620 2569 c0 -11 -5 -29 -10 -39 -7 -13 -7 -21 2 -26 6 -4 14 -2 16
4 2 6 9 9 16 6 20 -8 26 31 9 55 -18 27 -33 27 -33 0z m30 -18 c0 -6 -4 -13
-10 -16 -5 -3 -10 1 -10 9 0 9 5 16 10 16 6 0 10 -4 10 -9z"/>
<path d="M3205 2561 c-3 -11 -13 -25 -21 -32 -13 -10 -17 -10 -25 2 -6 10 -9
8 -9 -11 0 -14 5 -32 10 -40 5 -8 10 -10 10 -4 0 5 8 19 18 30 10 11 22 32 26
47 7 31 1 37 -9 8z"/>
<path d="M3530 2555 c-7 -8 -20 -15 -29 -16 -12 0 -11 -4 7 -16 12 -8 22 -23
22 -33 0 -25 9 -30 37 -17 18 8 23 16 19 31 -3 12 -6 31 -6 44 0 26 -31 30
-50 7z m22 -27 c-6 -6 -15 -7 -22 -3 -8 5 -6 11 7 20 20 15 32 0 15 -17z"/>
<path d="M377 2539 c-4 -13 -1 -14 19 -5 29 13 31 22 5 22 -11 0 -22 -8 -24
-17z"/>
<path d="M740 2533 c0 -18 2 -33 4 -33 9 0 13 39 5 51 -6 10 -9 4 -9 -18z"/>
<path d="M2031 2549 c-13 -5 -33 -7 -44 -3 -14 4 -18 2 -15 -7 3 -10 19 -13
54 -11 38 3 54 -1 65 -14 12 -15 12 -16 -9 -10 -13 5 -22 3 -22 -3 0 -6 16
-11 35 -11 l34 0 -35 35 c-19 19 -36 35 -37 34 -1 0 -13 -5 -26 -10z"/>
<path d="M1100 2545 c0 -6 56 -35 67 -35 4 0 -7 9 -25 20 -33 20 -42 24 -42
15z"/>
<path d="M2390 2546 c0 -2 8 -10 18 -17 15 -13 16 -12 3 4 -13 16 -21 21 -21
13z"/>
<path d="M3320 2541 c0 -6 5 -13 10 -16 6 -3 10 1 10 9 0 9 -4 16 -10 16 -5 0
-10 -4 -10 -9z"/>
<path d="M430 2532 c-8 -3 -21 -11 -29 -19 -7 -8 -19 -12 -26 -9 -19 7 -28
-37 -11 -49 20 -15 -6 -50 -30 -41 -30 11 -54 -3 -54 -32 0 -15 5 -34 11 -42
7 -11 8 -4 3 23 l-6 38 40 -6 c37 -4 41 -2 55 27 17 36 14 50 -10 41 -12 -5
-12 -2 3 15 10 12 29 22 42 22 12 0 25 7 29 15 7 19 2 24 -17 17z"/>
<path d="M3306 2513 c-11 -11 -6 -23 9 -23 8 0 15 4 15 9 0 13 -16 22 -24 14z"/>
<path d="M495 2501 c-3 -5 -1 -12 5 -16 5 -3 10 1 10 9 0 18 -6 21 -15 7z"/>
<path d="M1350 2504 c0 -10 42 -75 46 -72 8 9 -21 78 -33 78 -7 0 -13 -3 -13
-6z"/>
<path d="M1970 2501 c0 -5 7 -12 16 -15 14 -5 15 -4 4 9 -14 17 -20 19 -20 6z"/>
<path d="M2010 2500 c0 -5 9 -14 20 -20 22 -12 27 -1 8 18 -14 14 -28 16 -28
2z"/>
<path d="M2435 2500 c3 -5 8 -10 11 -10 2 0 4 5 4 10 0 6 -5 10 -11 10 -5 0
-7 -4 -4 -10z"/>
<path d="M3120 2495 c-7 -9 -10 -18 -7 -21 3 -3 10 4 17 15 13 25 8 27 -10 6z"/>
<path d="M297 2480 c-3 -11 -2 -20 3 -20 12 0 21 28 11 35 -5 2 -11 -4 -14
-15z"/>
<path d="M1816 2475 c18 -27 41 -33 41 -10 0 8 -4 12 -8 10 -3 -3 -12 2 -19
10 -21 25 -32 17 -14 -10z"/>
<path d="M2610 2470 c20 -5 39 -5 45 1 5 5 -8 9 -35 8 l-45 -1 35 -8z"/>
<path d="M2098 2463 c7 -3 16 -2 19 1 4 3 -2 6 -13 5 -11 0 -14 -3 -6 -6z"/>
<path d="M723 2409 c-2 -23 3 -25 10 -4 4 8 3 16 -1 19 -4 3 -9 -4 -9 -15z"/>
<path d="M3295 2421 c-6 -5 -17 -11 -25 -14 -8 -2 -2 -3 15 -1 32 5 60 24 34
24 -8 0 -19 -4 -24 -9z"/>
<path d="M1406 2407 c3 -10 9 -15 12 -12 3 3 0 11 -7 18 -10 9 -11 8 -5 -6z"/>
<path d="M1613 2405 c-14 -16 -7 -25 21 -25 12 0 34 -9 50 -19 29 -19 46 -19
46 0 0 5 -9 9 -19 9 -11 0 -23 5 -26 10 -3 6 -13 10 -22 10 -9 0 -21 6 -27 14
-9 12 -13 13 -23 1z"/>
<path d="M2100 2408 c0 -6 -7 -19 -16 -29 -15 -17 -19 -17 -48 -3 l-31 16 35
-31 c38 -33 52 -39 44 -17 -8 20 40 49 66 41 19 -6 20 -5 8 14 -8 13 -16 17
-22 11 -13 -13 -29 -13 -21 0 3 6 1 10 -4 10 -6 0 -11 -5 -11 -12z"/>
<path d="M2040 2400 c0 -6 7 -10 15 -10 8 0 15 2 15 4 0 2 -7 6 -15 10 -8 3
-15 1 -15 -4z"/>
<path d="M766 2391 c-4 -5 3 -7 14 -4 23 6 26 13 6 13 -8 0 -17 -4 -20 -9z"/>
<path d="M1488 2373 c7 -3 16 -2 19 1 4 3 -2 6 -13 5 -11 0 -14 -3 -6 -6z"/>
<path d="M695 2360 c-3 -5 -1 -10 4 -10 6 0 11 5 11 10 0 6 -2 10 -4 10 -3 0
-8 -4 -11 -10z"/>
<path d="M1545 2350 c-3 -5 -1 -10 4 -10 6 0 11 5 11 10 0 6 -2 10 -4 10 -3 0
-8 -4 -11 -10z"/>
<path d="M2120 2349 c0 -5 5 -7 10 -4 6 3 10 8 10 11 0 2 -4 4 -10 4 -5 0 -10
-5 -10 -11z"/>
<path d="M294 2305 c-3 -8 -4 -20 -2 -27 3 -7 7 -1 10 15 6 29 1 36 -8 12z"/>
<path d="M547 2306 c-3 -7 -17 -13 -32 -13 -35 0 -50 -16 -31 -32 11 -9 17 -9
28 2 7 8 23 19 36 26 12 6 22 16 22 21 0 15 -17 12 -23 -4z"/>
<path d="M715 2300 c-3 -5 -1 -10 4 -10 6 0 11 5 11 10 0 6 -2 10 -4 10 -3 0
-8 -4 -11 -10z"/>
<path d="M2205 2300 c-3 -6 1 -7 9 -4 18 7 21 14 7 14 -6 0 -13 -4 -16 -10z"/>
<path d="M2300 2300 c0 -5 9 -14 20 -20 19 -10 20 -10 8 9 -13 22 -28 28 -28
11z"/>
<path d="M3061 2284 c0 -11 3 -14 6 -6 3 7 2 16 -1 19 -3 4 -6 -2 -5 -13z"/>
<path d="M777 2274 c2 -7 11 -10 19 -7 19 7 18 10 -5 16 -13 3 -18 1 -14 -9z"/>
<path d="M2097 2265 c3 -8 9 -12 14 -9 12 7 11 11 -5 17 -10 4 -13 1 -9 -8z"/>
<path d="M748 2263 c7 -3 16 -2 19 1 4 3 -2 6 -13 5 -11 0 -14 -3 -6 -6z"/>
<path d="M1357 2263 c-4 -3 -7 -11 -7 -17 0 -6 4 -5 9 3 8 12 12 12 26 -3 21
-20 33 -13 15 9 -13 16 -32 20 -43 8z"/>
<path d="M1825 2260 c-3 -5 -1 -10 4 -10 6 0 11 5 11 10 0 6 -2 10 -4 10 -3 0
-8 -4 -11 -10z"/>
<path d="M2371 2254 c0 -11 3 -14 6 -6 3 7 2 16 -1 19 -3 4 -6 -2 -5 -13z"/>
<path d="M1180 2250 c0 -5 5 -10 10 -10 6 0 10 5 10 10 0 6 -4 10 -10 10 -5 0
-10 -4 -10 -10z"/>
<path d="M2290 2207 c0 -10 7 -17 15 -17 8 0 15 -5 15 -11 0 -5 -4 -8 -9 -5
-5 3 -11 -3 -14 -14 -3 -11 0 -20 6 -20 6 0 0 -11 -12 -24 l-22 -23 25 4 c31
6 69 -26 60 -50 -3 -9 -9 -15 -13 -13 -4 3 -13 0 -21 -6 -12 -8 -12 -9 3 -4
16 5 22 -5 18 -28 -1 -5 5 -6 14 -2 9 3 25 6 35 6 22 0 36 36 21 54 -12 15 4
36 29 37 13 0 13 1 0 6 -8 3 -22 11 -30 18 -8 7 -24 15 -35 18 -14 3 -11 5 11
6 16 0 35 -4 42 -11 7 -7 12 -8 12 -4 0 5 7 3 15 -4 20 -16 19 -6 -1 14 -8 9
-27 16 -41 16 -22 0 -24 3 -19 26 6 22 4 24 -12 15 -25 -13 -47 -9 -72 14 -18
16 -20 16 -20 2z"/>
<path d="M3075 2210 c-3 -5 -2 -10 4 -10 5 0 13 5 16 10 3 6 2 10 -4 10 -5 0
-13 -4 -16 -10z"/>
<path d="M1421 2191 c-9 -6 -10 -11 -2 -15 6 -4 11 -2 11 5 0 6 8 9 20 6 11
-3 20 -1 20 4 0 11 -31 11 -49 0z"/>
<path d="M1780 2183 c-13 -15 -12 -16 3 -10 13 5 22 -3 37 -33 20 -39 40 -60
40 -41 0 5 -4 12 -10 16 -5 3 -7 11 -4 18 5 13 -31 67 -44 67 -4 -1 -14 -8
-22 -17z"/>
<path d="M1300 2174 c-14 -7 -18 -13 -10 -13 24 1 54 15 44 21 -5 4 -20 0 -34
-8z"/>
<path d="M805 2170 c3 -5 11 -10 16 -10 6 0 7 5 4 10 -3 6 -11 10 -16 10 -6 0
-7 -4 -4 -10z"/>
<path d="M1367 2173 c-22 -6 -12 -23 14 -23 10 0 19 7 19 15 0 15 -2 16 -33 8z"/>
<path d="M3090 2169 c0 -5 5 -7 10 -4 6 3 10 8 10 11 0 2 -4 4 -10 4 -5 0 -10
-5 -10 -11z"/>
<path d="M365 2159 c-4 -6 -5 -12 -2 -15 2 -3 7 2 10 11 7 17 1 20 -8 4z"/>
<path d="M2070 2148 c0 -5 5 -6 10 -3 6 3 10 1 10 -4 0 -6 -13 -11 -29 -11
-16 0 -31 -6 -35 -15 -7 -19 11 -19 44 0 38 22 67 19 74 -7 4 -18 8 -20 18
-10 13 13 29 16 26 5 -4 -15 13 -83 21 -83 4 0 4 23 0 50 -14 92 -13 91 -80
89 -32 -1 -59 -6 -59 -11z m110 -18 c0 -5 -4 -10 -9 -10 -6 0 -13 5 -16 10 -3
6 1 10 9 10 9 0 16 -4 16 -10z"/>
<path d="M660 2140 c0 -5 5 -10 11 -10 5 0 7 5 4 10 -3 6 -8 10 -11 10 -2 0
-4 -4 -4 -10z"/>
<path d="M1771 2131 c-9 -6 -10 -11 -2 -15 13 -8 31 1 31 15 0 11 -11 11 -29
0z"/>
<path d="M741 2117 c-8 -10 -7 -14 4 -14 8 0 15 6 15 14 0 7 -2 13 -4 13 -2 0
-9 -6 -15 -13z"/>
<path d="M1350 2121 c0 -5 5 -13 10 -16 6 -3 10 -2 10 4 0 5 -4 13 -10 16 -5
3 -10 2 -10 -4z"/>
<path d="M336 2104 c-5 -14 -4 -15 9 -4 17 14 19 20 6 20 -5 0 -12 -7 -15 -16z"/>
<path d="M2220 2092 c1 -9 26 -42 33 -42 11 0 -6 39 -19 44 -8 3 -14 2 -14 -2z"/>
<path d="M2290 2070 c-13 -8 -12 -10 3 -10 9 0 17 5 17 10 0 12 -1 12 -20 0z"/>
<path d="M2071 2031 c-7 -5 -10 -14 -7 -20 4 -6 2 -11 -5 -11 -8 0 -8 -4 1
-15 7 -9 19 -14 26 -11 7 3 15 -1 18 -9 6 -16 69 -30 86 -20 15 9 -23 36 -64
44 -20 5 -32 14 -36 29 -3 15 -9 19 -19 13z"/>
<path d="M2240 1970 c-12 -8 -10 -10 8 -10 13 0 20 4 17 10 -7 12 -6 12 -25 0z"/>
<path d="M1365 1960 c3 -5 13 -10 21 -10 8 0 14 5 14 10 0 6 -9 10 -21 10 -11
0 -17 -4 -14 -10z"/>
<path d="M1402 1924 c10 -10 20 -16 22 -13 3 3 -5 11 -17 18 -21 13 -21 12 -5
-5z"/>
<path d="M2830 1930 c0 -5 5 -10 10 -10 6 0 10 5 10 10 0 6 -4 10 -10 10 -5 0
-10 -4 -10 -10z"/>
<path d="M1687 1915 c-8 -7 -22 -15 -33 -18 -16 -4 -16 -5 -2 -6 18 -1 14 -28
-6 -44 -6 -5 0 -6 14 -3 14 3 37 6 52 6 22 0 25 3 20 23 -5 22 -5 22 17 3 18
-17 21 -17 15 -3 -3 9 -10 18 -15 18 -5 1 -13 3 -19 4 -5 1 -18 4 -27 5 -11 1
-5 5 12 9 28 6 29 7 7 13 -13 4 -28 1 -35 -7z"/>
<path d="M1758 1923 c7 -3 16 -2 19 1 4 3 -2 6 -13 5 -11 0 -14 -3 -6 -6z"/>
<path d="M1866 1895 c-3 -9 0 -15 9 -15 8 0 15 7 15 15 0 8 -4 15 -9 15 -5 0
-11 -7 -15 -15z"/>
<path d="M1900 1892 c0 -15 5 -19 20 -15 12 3 19 6 18 7 -2 1 -11 8 -20 15
-16 12 -18 11 -18 -7z"/>
<path d="M1387 1840 c-3 -12 0 -20 8 -20 8 0 11 8 8 20 -3 11 -7 20 -8 20 -1
0 -5 -9 -8 -20z"/>
<path d="M1455 1834 c-20 -15 -20 -16 4 -12 14 2 26 9 29 16 5 16 -9 15 -33
-4z"/>
<path d="M1742 1420 c-7 -11 -8 -20 -3 -20 9 0 24 30 18 36 -1 2 -8 -6 -15
-16z"/>
<path d="M1785 1390 c3 -5 10 -10 16 -10 5 0 9 5 9 10 0 6 -7 10 -16 10 -8 0
-12 -4 -9 -10z"/>
<path d="M726 1021 c-4 -7 -5 -15 -2 -18 9 -9 19 4 14 18 -4 11 -6 11 -12 0z"/>
<path d="M670 955 c7 -9 15 -13 17 -11 7 7 -7 26 -19 26 -6 0 -6 -6 2 -15z"/>
<path d="M715 960 c3 -5 8 -10 11 -10 2 0 4 5 4 10 0 6 -5 10 -11 10 -5 0 -7
-4 -4 -10z"/>
<path d="M720 830 c0 -5 14 -19 30 -32 17 -12 30 -26 30 -31 0 -5 -7 -4 -15 3
-17 14 -21 0 -4 -17 16 -16 39 -5 32 15 -7 21 -54 72 -65 72 -4 0 -8 -4 -8
-10z"/>
<path d="M770 630 c6 -11 13 -20 16 -20 2 0 0 9 -6 20 -6 11 -13 20 -16 20 -2
0 0 -9 6 -20z"/>
<path d="M750 587 c0 -8 11 -18 25 -21 20 -5 25 -13 25 -36 0 -17 -4 -30 -9
-30 -5 0 -11 -6 -14 -14 -4 -9 0 -12 13 -9 21 5 33 29 24 45 -3 5 22 -5 56
-23 51 -26 64 -30 71 -18 7 11 9 12 9 0 0 -7 6 -11 14 -8 7 3 19 0 25 -6 9 -9
11 -8 5 7 -5 13 -3 17 7 14 7 -2 16 -15 20 -29 6 -20 7 -21 8 -4 1 27 -14 48
-30 43 -8 -3 -31 1 -52 8 -21 7 -35 9 -32 4 10 -16 -12 -11 -29 6 -9 8 -20 13
-25 10 -5 -3 -16 6 -25 19 -9 14 -21 23 -25 20 -5 -2 -20 5 -35 16 -20 16 -26
17 -26 6z"/>
<path d="M714 524 c-4 -15 -2 -30 5 -37 9 -9 11 -8 6 6 -4 9 -3 17 2 17 5 0 9
9 10 20 2 29 -15 25 -23 -6z"/>
<path d="M760 444 c0 -8 5 -12 10 -9 6 3 10 -2 10 -13 0 -10 9 -27 20 -37 11
-10 20 -13 20 -8 0 6 -7 16 -15 23 -8 7 -15 20 -15 30 0 10 -7 20 -15 24 -9 3
-15 0 -15 -10z"/>
<path d="M1010 413 c0 -21 48 -69 59 -57 3 3 -4 13 -15 22 -12 9 -26 26 -32
37 -11 20 -11 20 -12 -2z"/>
<path d="M740 401 c0 -8 8 -20 18 -27 16 -12 16 -13 0 -14 -9 0 -24 10 -32 22
-13 19 -16 20 -16 5 0 -10 7 -20 15 -23 21 -8 19 -21 -5 -27 -14 -4 -20 -14
-20 -35 0 -22 6 -32 20 -37 11 -3 20 -14 21 -23 0 -11 2 -12 6 -4 3 7 -3 25
-13 40 -17 27 -17 27 2 10 19 -17 21 -16 34 2 14 20 50 27 64 13 15 -15 100
-11 119 5 15 13 17 13 17 0 0 -9 17 -20 43 -27 23 -7 47 -17 54 -22 6 -6 40
-18 75 -28 34 -11 84 -29 110 -40 40 -18 49 -28 58 -60 7 -26 17 -41 31 -44
15 -4 19 -2 15 10 -3 8 -6 20 -6 28 0 7 -9 15 -20 18 -11 3 -20 11 -20 17 0 8
7 9 18 5 41 -17 77 -15 90 6 10 16 11 24 1 35 -7 8 -17 13 -23 11 -6 -3 -20 0
-31 5 -12 5 -8 -2 10 -16 l30 -26 -30 10 c-82 26 -149 51 -160 60 -7 6 -17 10
-21 9 -20 -4 -74 24 -67 34 3 7 3 9 -2 5 -4 -4 -15 -2 -23 5 -13 9 -14 9 -8 0
9 -17 11 -17 -78 12 -42 14 -83 25 -91 25 -7 0 -20 7 -28 15 -20 19 -67 31
-67 16 0 -20 -51 -6 -71 20 -11 14 -19 18 -19 10z"/>
<path d="M1379 296 c13 -16 51 -41 51 -33 0 2 -15 14 -32 27 -21 15 -28 17
-19 6z"/>
<path d="M930 269 c0 -8 16 -31 35 -53 23 -24 35 -46 33 -59 -2 -16 2 -22 17
-22 13 0 20 -7 20 -20 0 -11 -6 -19 -12 -17 -15 2 -15 -5 -3 -33 5 -11 9 -14
9 -7 1 10 6 10 23 1 16 -8 23 -9 26 -1 5 16 32 3 32 -15 0 -9 -6 -13 -14 -10
-10 4 -13 1 -10 -8 8 -20 44 -27 44 -8 0 13 3 13 15 3 19 -15 79 -24 70 -10
-3 5 -15 15 -27 21 -15 8 -19 8 -14 0 4 -6 3 -11 -3 -11 -18 0 -141 128 -141
147 -1 17 -44 70 -83 102 -14 11 -17 11 -17 0z"/>
<path d="M1350 261 c0 -10 19 -25 25 -20 1 2 -3 10 -11 17 -8 7 -14 8 -14 3z"/>
<path d="M1522 254 c11 -11 23 -14 35 -9 17 7 17 8 -2 15 -11 5 -27 9 -35 9
-12 1 -11 -2 2 -15z"/>
<path d="M887 240 c-3 -11 -1 -20 4 -20 5 0 9 9 9 20 0 11 -2 20 -4 20 -2 0
-6 -9 -9 -20z"/>
<path d="M1575 240 c-4 -7 2 -21 14 -33 27 -27 33 -19 11 16 -12 19 -20 25
-25 17z"/>
<path d="M791 216 c7 -15 15 -23 17 -16 3 7 -3 19 -13 28 -15 16 -16 15 -4
-12z"/>
<path d="M1610 226 c0 -2 8 -10 18 -17 15 -13 16 -12 3 4 -13 16 -21 21 -21
13z"/>
<path d="M1030 211 c0 -6 4 -13 10 -16 6 -3 7 1 4 9 -7 18 -14 21 -14 7z"/>
<path d="M1435 210 c-3 -5 1 -13 10 -16 22 -9 29 1 11 15 -10 8 -16 9 -21 1z"/>
<path d="M1813 166 c-18 -21 15 -31 37 -11 9 8 20 11 26 6 5 -5 26 -11 47 -14
34 -5 36 -4 27 14 -9 15 -21 19 -68 19 -35 -1 -62 -6 -69 -14z"/>
<path d="M1455 157 c-11 -7 -21 -12 -23 -13 -1 -1 0 -8 4 -17 8 -23 33 -29 51
-12 18 19 30 12 47 -28 12 -26 15 -28 15 -11 1 26 -39 88 -59 91 -8 1 -24 -3
-35 -10z"/>
<path d="M1547 161 c-20 -7 -14 -16 23 -36 12 -6 12 -5 3 5 -6 7 -9 19 -6 26
6 16 6 16 -20 5z"/>
<path d="M1725 160 c-3 -5 -1 -10 4 -10 6 0 11 5 11 10 0 6 -2 10 -4 10 -3 0
-8 -4 -11 -10z"/>
<path d="M1370 139 c0 -5 9 -9 20 -9 11 0 20 2 20 4 0 2 -9 6 -20 9 -11 3 -20
1 -20 -4z"/>
<path d="M800 111 c0 -5 5 -13 10 -16 6 -3 10 -2 10 4 0 5 -4 13 -10 16 -5 3
-10 2 -10 -4z"/>
<path d="M1405 109 c-4 -6 -5 -12 -2 -15 2 -3 7 2 10 11 7 17 1 20 -8 4z"/>
<path d="M1110 96 c0 -2 8 -10 18 -17 15 -13 16 -12 3 4 -13 16 -21 21 -21 13z"/>
<path d="M800 72 c0 -17 26 -72 32 -67 9 9 -7 68 -20 73 -6 2 -12 -1 -12 -6z"/>
<path d="M2400 60 c0 -5 7 -7 15 -4 8 4 15 8 15 10 0 2 -7 4 -15 4 -8 0 -15
-4 -15 -10z"/>
<path d="M2120 50 c0 -5 7 -7 15 -4 8 4 15 8 15 10 0 2 -7 4 -15 4 -8 0 -15
-4 -15 -10z"/>
<path d="M1347 43 c-11 -10 -8 -43 3 -43 6 0 10 11 10 25 0 26 -2 29 -13 18z"/>
<path d="M1615 30 c-4 -11 -11 -18 -16 -15 -5 4 -9 1 -9 -5 0 -22 43 -6 46 18
5 27 -12 29 -21 2z"/>
<path d="M1030 20 c0 -5 5 -10 10 -10 6 0 10 5 10 10 0 6 -4 10 -10 10 -5 0
-10 -4 -10 -10z"/>
<path d="M1251 14 c0 -11 3 -14 6 -6 3 7 2 16 -1 19 -3 4 -6 -2 -5 -13z"/>
<path d="M1461 14 c0 -11 3 -14 6 -6 3 7 2 16 -1 19 -3 4 -6 -2 -5 -13z"/>
<path d="M2810 15 c0 -8 4 -15 10 -15 5 0 7 7 4 15 -4 8 -8 15 -10 15 -2 0 -4
-7 -4 -15z"/>
<path d="M2128 13 c7 -3 16 -2 19 1 4 3 -2 6 -13 5 -11 0 -14 -3 -6 -6z"/>
</g>
</svg>
