<?xml version="1.0" standalone="no"?>
<!DOCTYPE svg PUBLIC "-//W3C//DTD SVG 20010904//EN"
 "http://www.w3.org/TR/2001/REC-SVG-20010904/DTD/svg10.dtd">
<svg version="1.0" xmlns="http://www.w3.org/2000/svg"
 width="1280.000000pt" height="853.000000pt" viewBox="0 0 1280.000000 853.000000"
 preserveAspectRatio="xMidYMid meet">
<metadata>
Created by potrace 1.16, written by Peter Selinger 2001-2019
</metadata>
<g transform="translate(0.000000,853.000000) scale(0.100000,-0.100000)"
fill="#000000" stroke="none">
<path d="M6825 6050 l-39 -40 -313 0 c-202 0 -313 -4 -313 -10 0 -6 113 -10
320 -10 l320 0 20 -40 20 -40 94 0 c51 0 95 3 99 6 3 3 -4 22 -16 41 l-21 36
23 39 c12 21 19 43 16 48 -3 6 -43 10 -89 10 l-82 0 -39 -40z"/>
<path d="M2140 5970 c0 -60 4 -100 10 -100 6 0 10 40 10 100 0 60 -4 100 -10
100 -6 0 -10 -40 -10 -100z"/>
<path d="M8130 5810 c113 -227 98 -215 189 -142 79 64 141 180 157 295 l6 47
-226 0 -226 0 100 -200z"/>
<path d="M4520 5795 l0 -205 -115 0 c-96 0 -115 -3 -115 -15 0 -13 54 -15 430
-15 376 0 430 2 430 15 0 13 -33 15 -235 15 l-235 0 0 205 0 205 -80 0 -80 0
0 -205z"/>
<path d="M2430 5898 c-83 -96 -92 -108 -83 -108 13 0 135 139 131 150 -2 6
-23 -14 -48 -42z"/>
<path d="M1840 5830 c41 -38 77 -67 80 -64 6 7 -131 134 -145 133 -5 0 24 -31
65 -69z"/>
<path d="M9410 5860 c-19 -4 -123 -22 -230 -40 -181 -30 -222 -41 -208 -55 3
-3 116 13 252 37 175 30 246 46 246 55 0 14 -7 14 -60 3z"/>
<path d="M2967 5795 c-5 -11 58 -25 360 -76 120 -20 158 -21 140 -3 -3 4 -93
21 -199 39 -106 18 -216 37 -245 43 -38 7 -53 6 -56 -3z"/>
<path d="M9430 5758 c-25 -4 -134 -23 -243 -42 -193 -33 -217 -39 -204 -53 6
-6 424 60 484 76 42 11 10 27 -37 19z"/>
<path d="M7327 5692 c-27 -29 -22 -77 10 -102 64 -50 145 30 97 98 -20 28 -83
31 -107 4z m74 -12 c28 -16 25 -58 -6 -72 -19 -8 -28 -8 -40 2 -18 15 -20 51
-3 68 15 15 24 15 49 2z"/>
<path d="M2950 5690 c0 -12 -1 -11 216 -49 222 -39 284 -47 284 -33 0 12 5 11
-262 57 -227 38 -238 40 -238 25z"/>
<path d="M6926 5618 c-21 -54 -16 -68 25 -68 34 0 36 15 10 75 l-18 40 -17
-47z"/>
<path d="M9196 5614 c-104 -18 -191 -36 -194 -39 -18 -18 30 -15 203 15 175
30 212 40 188 53 -5 2 -93 -11 -197 -29z"/>
<path d="M1640 5570 c0 -6 39 -10 106 -10 58 0 103 4 100 9 -8 13 -206 14
-206 1z"/>
<path d="M2236 5559 c-3 -8 -21 -94 -39 -192 -19 -98 -38 -181 -41 -184 -14
-15 -26 21 -62 192 -20 99 -38 182 -40 184 -1 1 -7 0 -12 -3 -6 -3 6 -78 28
-185 32 -152 35 -181 23 -185 -8 -4 -19 -4 -24 0 -5 3 -9 -24 -9 -60 0 -58 2
-66 19 -66 10 0 25 -10 33 -22 11 -16 20 -20 41 -14 15 3 27 13 27 21 0 9 10
15 25 15 24 0 25 3 25 60 0 47 -3 60 -15 60 -9 0 -18 6 -20 13 -3 6 10 91 29
187 20 102 31 179 25 184 -5 6 -10 4 -13 -5z"/>
<path d="M2498 5563 c28 -2 76 -2 105 0 28 2 5 3 -53 3 -58 0 -81 -1 -52 -3z"/>
<path d="M5304 5147 c-9 -24 0 -80 14 -85 8 -2 12 10 12 42 0 45 -15 70 -26
43z"/>
<path d="M5121 5088 c6 -18 13 -39 15 -47 3 -10 8 -11 15 -4 15 15 -7 83 -26
83 -11 0 -12 -7 -4 -32z"/>
<path d="M5485 5083 c-10 -23 -12 -40 -6 -46 9 -9 41 50 41 74 0 22 -21 5 -35
-28z"/>
<path d="M4947 5024 c-7 -8 41 -74 54 -74 15 0 10 20 -12 51 -20 29 -30 34
-42 23z"/>
<path d="M5643 4998 c-31 -44 -16 -59 19 -18 31 37 35 50 16 50 -7 0 -23 -15
-35 -32z"/>
<path d="M5243 4999 c-131 -22 -258 -120 -320 -247 -37 -75 -38 -78 -38 -192
0 -110 1 -118 33 -182 85 -173 247 -269 432 -255 92 7 148 26 220 76 230 158
255 493 52 683 -63 59 -153 104 -233 118 -72 11 -74 11 -146 -1z m188 -55
c202 -59 328 -278 276 -477 -42 -158 -162 -269 -325 -299 -118 -22 -253 22
-342 111 -181 181 -150 481 65 619 91 59 220 77 326 46z"/>
<path d="M5312 4900 c0 -19 2 -27 5 -17 2 9 2 25 0 35 -3 9 -5 1 -5 -18z"/>
<path d="M5422 4885 c-14 -31 -15 -35 -3 -35 9 0 25 49 18 56 -2 2 -9 -7 -15
-21z"/>
<path d="M5197 4880 c6 -22 23 -38 23 -21 0 17 -12 41 -20 41 -5 0 -6 -9 -3
-20z"/>
<path d="M5090 4845 c1 -17 29 -49 37 -41 4 3 -3 16 -15 29 -12 12 -22 17 -22
12z"/>
<path d="M5520 4831 c-13 -25 -13 -34 0 -26 16 10 32 45 21 45 -6 0 -15 -9
-21 -19z"/>
<path d="M5020 4772 c0 -13 27 -35 39 -30 5 1 -2 11 -15 21 -13 10 -24 14 -24
9z"/>
<path d="M5589 4761 c-31 -25 -21 -35 11 -11 14 10 22 21 19 25 -3 3 -17 -3
-30 -14z"/>
<path d="M5310 4658 c0 -46 -4 -88 -8 -93 -4 -6 -42 -39 -84 -75 -43 -35 -78
-68 -78 -73 0 -5 41 26 90 68 l90 76 0 90 c0 49 -2 89 -5 89 -3 0 -5 -37 -5
-82z"/>
<path d="M4973 4677 c2 -7 14 -14 26 -15 28 -4 20 13 -9 21 -14 3 -20 1 -17
-6z"/>
<path d="M5620 4670 c-24 -15 -7 -19 25 -5 23 10 25 14 10 14 -11 0 -27 -3
-35 -9z"/>
<path d="M4970 4560 l-25 -8 28 -1 c15 -1 27 4 27 9 0 6 -1 10 -2 9 -2 -1 -14
-5 -28 -9z"/>
<path d="M5650 4560 l-25 -8 28 -1 c15 -1 27 4 27 9 0 6 -1 10 -2 9 -2 -1 -14
-5 -28 -9z"/>
<path d="M4988 4453 c-10 -2 -18 -9 -18 -14 0 -13 13 -11 36 6 19 14 14 17
-18 8z"/>
<path d="M5614 4451 c8 -12 46 -21 46 -11 0 8 -24 20 -41 20 -6 0 -8 -4 -5 -9z"/>
<path d="M5034 4366 c-10 -8 -16 -17 -13 -20 3 -4 17 2 30 13 27 23 13 28 -17
7z"/>
<path d="M5570 4372 c0 -11 41 -34 48 -28 3 4 -3 13 -14 21 -21 16 -34 19 -34
7z"/>
<path d="M5507 4313 c-7 -10 29 -50 37 -42 3 2 -3 15 -13 28 -10 13 -21 19
-24 14z"/>
<path d="M5102 4298 c-7 -7 -12 -16 -12 -20 0 -15 15 -8 28 12 13 22 3 27 -16
8z"/>
<path d="M5197 4238 c-6 -21 -2 -36 7 -27 10 11 16 49 8 49 -5 0 -12 -10 -15
-22z"/>
<path d="M5417 4240 c6 -22 23 -38 23 -21 0 17 -12 41 -20 41 -5 0 -6 -9 -3
-20z"/>
<path d="M5312 4220 c0 -19 2 -27 5 -17 2 9 2 25 0 35 -3 9 -5 1 -5 -18z"/>
<path d="M4830 4901 c0 -13 62 -61 72 -55 15 10 8 23 -26 43 -37 23 -46 25
-46 12z"/>
<path d="M5750 4882 c-18 -16 -29 -31 -24 -35 13 -8 85 43 78 54 -8 14 -18 11
-54 -19z"/>
<path d="M5817 4747 c-29 -12 -31 -34 -2 -29 34 6 65 22 65 32 0 12 -26 11
-63 -3z"/>
<path d="M9212 4658 c-7 -7 -12 -20 -12 -30 0 -24 -23 -32 -50 -18 -18 10 -26
8 -46 -11 -25 -23 -31 -53 -14 -64 6 -3 10 -17 10 -30 0 -16 -7 -25 -26 -29
-23 -6 -25 -11 -22 -49 3 -38 6 -42 33 -47 28 -5 30 -8 27 -47 -2 -34 2 -45
24 -62 25 -20 27 -20 56 -3 32 18 32 18 63 -34 9 -13 19 -16 48 -10 31 6 37
11 37 31 0 30 28 47 53 33 24 -13 42 -5 63 26 15 24 15 28 0 50 -20 31 -12 52
20 60 22 6 25 11 22 43 -2 22 -10 39 -20 44 -46 23 -53 28 -49 41 11 36 5 60
-22 76 -22 14 -31 15 -47 4 -30 -19 -50 -14 -60 13 -8 20 -16 25 -43 25 -18 0
-38 -5 -45 -12z m112 -149 c52 -41 21 -139 -45 -139 -41 0 -58 9 -74 41 -21
40 -19 57 14 90 35 34 68 37 105 8z"/>
<path d="M4782 4387 c-33 -10 -39 -35 -7 -29 34 6 65 22 65 32 0 12 -14 11
-58 -3z"/>
<path d="M4856 4246 c-42 -35 -24 -53 20 -20 19 15 34 30 34 35 0 16 -24 9
-54 -15z"/>
<path d="M5726 4261 c-3 -5 12 -20 33 -34 27 -18 41 -22 44 -14 2 7 -11 22
-29 35 -37 25 -41 26 -48 13z"/>
<path d="M5625 4160 c-9 -15 46 -83 58 -71 6 6 -1 22 -18 45 -30 40 -31 40
-40 26z"/>
<path d="M4966 4128 c-13 -18 -22 -36 -19 -42 7 -10 63 48 63 64 0 19 -19 10
-44 -22z"/>
<path d="M4035 4077 c-94 -31 -182 -102 -230 -182 -35 -60 -58 -167 -51 -232
13 -114 82 -233 166 -289 35 -23 38 -28 24 -39 -33 -24 -8 -50 68 -72 77 -23
104 -18 95 17 -4 15 6 18 62 23 171 14 304 116 356 275 26 79 18 209 -17 284
-37 79 -107 152 -184 189 -55 27 -77 32 -157 35 -59 3 -106 -1 -132 -9z m215
-82 c70 -25 135 -82 172 -149 30 -56 33 -68 33 -151 0 -81 -3 -95 -29 -143
-127 -229 -454 -218 -560 18 -76 169 6 360 182 425 50 18 150 18 202 0z"/>
<path d="M5130 4056 c-14 -38 -16 -59 -4 -63 9 -3 34 57 34 81 0 16 -21 3 -30
-18z"/>
<path d="M5476 4058 c17 -57 25 -71 34 -62 13 13 -10 84 -27 84 -10 0 -12 -7
-7 -22z"/>
<path d="M5300 4005 c0 -33 4 -45 15 -45 11 0 15 12 15 45 0 33 -4 45 -15 45
-11 0 -15 -12 -15 -45z"/>
<path d="M8752 3605 c-95 -7 -176 -15 -179 -19 -16 -16 20 -17 201 -6 152 10
196 16 196 27 0 7 -10 12 -22 12 -13 -1 -101 -7 -196 -14z"/>
<path d="M5487 3603 c-4 -3 -7 -14 -7 -24 0 -11 -9 -19 -22 -21 -29 -4 -30
-32 -1 -36 13 -2 23 -11 25 -25 4 -31 36 -35 40 -5 2 15 11 24 26 26 32 5 30
42 -3 42 -20 0 -25 5 -25 25 0 24 -18 34 -33 18z"/>
<path d="M8718 3500 c-131 -9 -241 -20 -245 -23 -17 -18 20 -19 184 -8 302 20
323 22 323 37 0 8 -6 13 -12 13 -7 -1 -120 -9 -250 -19z"/>
<path d="M8705 3394 c-88 -7 -175 -13 -192 -13 -23 -1 -33 -6 -33 -17 0 -13 7
-15 38 -10 20 3 107 10 192 16 227 15 280 21 280 31 0 12 -85 10 -285 -7z"/>
<path d="M1932 3198 c-9 -9 -12 -87 -12 -289 0 -239 2 -280 16 -293 13 -14 57
-16 329 -16 l314 0 3 53 3 52 135 2 c74 1 138 3 143 3 13 0 8 475 -5 488 -21
21 -38 14 -38 -15 -1 -25 -24 -44 -203 -168 -111 -77 -209 -140 -217 -139 -8
0 -104 60 -213 133 -192 129 -197 133 -197 167 0 29 -3 34 -23 34 -13 0 -28
-5 -35 -12z"/>
<path d="M6940 3176 c0 -14 14 -19 98 -31 33 -5 42 -4 42 8 0 11 -16 17 -52
22 -29 3 -61 9 -70 11 -12 4 -18 0 -18 -10z"/>
<path d="M3349 3170 c-9 -5 -22 -23 -29 -40 -11 -28 -11 -34 7 -58 29 -40 83
-42 112 -5 48 60 -24 142 -90 103z m65 -36 c22 -21 20 -40 -6 -58 -19 -13 -25
-14 -43 -2 -26 18 -30 40 -10 60 21 20 39 20 59 0z"/>
<path d="M5044 3157 c-3 -8 -4 -45 -2 -83 3 -66 4 -69 28 -69 25 0 25 1 25 80
0 75 -1 80 -23 83 -12 2 -24 -3 -28 -11z"/>
<path d="M5267 3163 c-3 -5 -7 -40 -8 -78 -3 -73 10 -95 45 -82 14 6 16 19 14
84 -3 71 -5 78 -25 81 -11 2 -23 -1 -26 -5z"/>
<path d="M5482 3158 c-8 -10 -9 -78 -3 -150 2 -15 49 -8 55 8 11 28 6 130 -6
142 -15 15 -33 15 -46 0z"/>
<path d="M5695 3147 c-4 -13 -5 -50 -3 -82 3 -57 4 -60 31 -63 15 -2 27 0 28
5 6 79 5 141 -3 151 -17 20 -47 14 -53 -11z"/>
<path d="M7160 3141 c0 -18 133 -40 144 -22 9 14 -1 18 -76 26 -44 4 -68 3
-68 -4z"/>
<path d="M7386 3111 c-10 -15 7 -21 79 -28 43 -4 65 -2 65 5 0 6 -12 13 -27
16 -77 14 -111 17 -117 7z"/>
<path d="M7610 3077 c0 -10 19 -18 63 -26 79 -14 77 -14 77 3 0 10 -17 16 -52
21 -29 3 -61 9 -70 11 -11 3 -18 0 -18 -9z"/>
<path d="M5941 2788 l-1 -298 111 0 c102 0 111 1 104 18 -3 9 -51 136 -104
282 -54 146 -101 272 -104 280 -3 8 -6 -119 -6 -282z"/>
<path d="M10370 2744 c-7 -47 -10 -87 -8 -89 5 -5 162 113 166 125 2 5 -16 14
-40 20 -24 6 -56 15 -72 20 -16 6 -30 10 -31 10 -1 0 -8 -38 -15 -86z"/>
<path d="M10210 2433 c-36 -14 -67 -26 -68 -28 -5 -5 71 -145 78 -145 8 0 65
189 59 194 -2 2 -33 -8 -69 -21z"/>
<path d="M8524 1926 c-4 -16 -13 -26 -24 -26 -18 0 -34 -23 -23 -34 4 -3 14
-6 22 -6 9 0 22 -14 28 -31 11 -27 15 -30 28 -19 8 7 15 21 15 31 0 10 9 19
22 21 31 4 34 26 4 34 -15 3 -26 14 -28 27 -4 32 -36 34 -44 3z"/>
<path d="M3913 1919 c-6 -6 -9 -17 -7 -24 3 -7 -7 -15 -26 -19 -36 -7 -36 -25
-1 -42 12 -6 22 -15 22 -20 1 -5 5 -15 11 -22 12 -14 38 1 38 22 0 6 10 16 23
21 12 6 22 15 22 20 0 6 -10 14 -22 20 -13 5 -23 15 -23 21 0 20 -25 35 -37
23z"/>
</g>
</svg>
